<svg xmlns="http://www.w3.org/2000/svg" version="1.1" xmlns:xlink="http://www.w3.org/1999/xlink" xmlns:svgjs="http://svgjs.com/svgjs" width="512" height="512" x="0" y="0" viewBox="0 0 152 152" style="enable-background:new 0 0 512 512" xml:space="preserve" class=""><g><linearGradient id="linear-gradient" gradientUnits="userSpaceOnUse" x1="70.56" x2="129.95" y1="65.95" y2="125.34"><stop offset="0" stop-color="#1e2d52"></stop><stop offset=".97" stop-color="#1e2c52" stop-opacity="0"></stop></linearGradient><g id="Layer_2" data-name="Layer 2"><g id="_01.facebook" data-name="01.facebook"><circle id="background" cx="76" cy="76" fill="#334c8c" r="76" data-original="#334c8c" class=""></circle><path id="shadow" d="m149.65 94.83a76.15 76.15 0 0 1 -47.78 52.65l-33.47-33.48 4.49-18.67-14.16-14.16c12.01-22.78 36.11-41.17 36.11-41.17z" fill="url(#linear-gradient)" data-original="url(#linear-gradient)"></path><path id="icon" d="m95.26 68.81-1.26 10.58a2 2 0 0 1 -2 1.78h-11v31.4a1.42 1.42 0 0 1 -1.4 1.43h-11.21a1.42 1.42 0 0 1 -1.4-1.44l.06-31.39h-8.33a2 2 0 0 1 -2-2v-10.58a2 2 0 0 1 2-2h8.28v-10.26c0-11.87 7.06-18.33 17.4-18.33h8.47a2 2 0 0 1 2 2v8.91a2 2 0 0 1 -2 2h-5.19c-5.62.09-6.68 2.78-6.68 6.8v8.85h12.31a2 2 0 0 1 1.95 2.25z" fill="#ffffff" data-original="#ffffff"></path></g></g></g></svg>