<svg xmlns="http://www.w3.org/2000/svg" version="1.1" xmlns:xlink="http://www.w3.org/1999/xlink" xmlns:svgjs="http://svgjs.com/svgjs" width="512" height="512" x="0" y="0" viewBox="0 0 152 152" style="enable-background:new 0 0 512 512" xml:space="preserve" class=""><g><linearGradient id="linear-gradient" gradientUnits="userSpaceOnUse" x1="67.91" x2="130.13" y1="64.65" y2="126.86"><stop offset="0" stop-color="#1f1133"></stop><stop offset=".47" stop-color="#1f1133" stop-opacity=".55"></stop><stop offset=".97" stop-color="#1f1133" stop-opacity="0"></stop></linearGradient><g id="Layer_2" data-name="Layer 2"><g id="_77.github" data-name="77.github"><circle id="background" cx="76" cy="76" fill="#4d2a7e" r="76" data-original="#4d2a7e" class=""></circle><path id="shadow" d="m150.72 89.9a76.11 76.11 0 0 1 -55.46 59.65l-51.62-51.63c-6.89-15.5 12-29.39 30.82-38.92a232.18 232.18 0 0 1 32.27-13.08z" fill="url(#linear-gradient)" data-original="url(#linear-gradient)" class=""></path><g id="icon" fill="#fff"><path d="m76.92 106.08c11.81 0 28.31.29 34.31-11.72 2.26-4.59 2.77-9.88 2.77-14.88 0-6.57-1.82-12.82-6.18-17.9a23.83 23.83 0 0 0 1.18-7.58c0-3.37-.76-5.06-2.31-8.11-7.09 0-11.69 1.33-17.07 5.51a55.54 55.54 0 0 0 -12.69-1.4 61.3 61.3 0 0 0 -14 1.57c-5.47-4.23-10.06-5.64-17.23-5.64-1.53 3-2.31 4.75-2.31 8.12a24.42 24.42 0 0 0 1.22 7.64 26.77 26.77 0 0 0 -6.61 17.79 33.3 33.3 0 0 0 3.2 14.89c6.24 12.14 23.72 11.71 35.72 11.71zm-16.75-31.63a64.29 64.29 0 0 1 8.87.94c10.82 1.64 16.51-.94 23.14-.94 7.41 0 11.64 6.06 11.64 12.94 0 13.77-12.71 15.87-23.84 15.87h-7.63c-11.09 0-23.82-2.11-23.82-15.87 0-6.88 4.23-12.94 11.64-12.94z" fill="#ffffff" data-original="#ffffff" class=""></path><path d="m90.74 96c4.09 0 5.81-5.36 5.81-8.64s-1.72-8.64-5.81-8.64-5.81 5.36-5.81 8.64 1.73 8.64 5.81 8.64z" fill="#ffffff" data-original="#ffffff" class=""></path><path d="m61.65 96c4.09 0 5.82-5.36 5.82-8.64s-1.73-8.63-5.82-8.63-5.81 5.36-5.81 8.63 1.73 8.64 5.81 8.64z" fill="#ffffff" data-original="#ffffff" class=""></path></g></g></g></g></svg>