<svg xmlns="http://www.w3.org/2000/svg" version="1.1" xmlns:xlink="http://www.w3.org/1999/xlink" xmlns:svgjs="http://svgjs.com/svgjs" width="512" height="512" x="0" y="0" viewBox="0 0 152 152" style="enable-background:new 0 0 512 512" xml:space="preserve" class=""><g><linearGradient id="linear-gradient" gradientUnits="userSpaceOnUse" x1="52.5" x2="126.75" y1="52.1" y2="126.36"><stop offset="0" stop-color="#b33a67"></stop><stop offset=".16" stop-color="#b33a67" stop-opacity=".87"></stop><stop offset=".48" stop-color="#b33a67" stop-opacity=".54"></stop><stop offset=".95" stop-color="#b33a67" stop-opacity=".02"></stop><stop offset=".97" stop-color="#b33a67" stop-opacity="0"></stop></linearGradient><g id="Layer_2" data-name="Layer 2"><g id="_48.dribbble" data-name="48.dribbble"><circle id="background" cx="76" cy="76" fill="#f24e8c" r="76" data-original="#f24e8c"></circle><path id="shadow" d="m149.42 95.71a76.12 76.12 0 0 1 -53.1 53.54l-51.4-51.4c-8.23-44.85 10.89-54.7 29.35-54.7 14.57 0 28.73 6.15 28.73 6.15z" fill="url(#linear-gradient)" data-original="url(#linear-gradient)"></path><path id="icon" d="m76 114a38 38 0 1 0 -38-38 38.08 38.08 0 0 0 38 38zm0-6.92a30.68 30.68 0 0 1 -17.61-5.53 47.63 47.63 0 0 1 22.9-17.47 95 95 0 0 1 4.12 21.38 30.92 30.92 0 0 1 -9.41 1.62zm16-4.58a101.45 101.45 0 0 0 -4.09-20.31 47.32 47.32 0 0 1 18.52 0 31.13 31.13 0 0 1 -14.43 20.31zm15-27.2a54.84 54.84 0 0 0 -21.45.31c-.88-2.26-1.82-4.48-2.86-6.68a54.84 54.84 0 0 0 15.78-14.3 31 31 0 0 1 8.53 20.67zm-31-30.38a30.86 30.86 0 0 1 17.2 5.19 47.87 47.87 0 0 1 -13.65 12.68 99.69 99.69 0 0 0 -11.7-16.66 30.91 30.91 0 0 1 8.15-1.21zm-14.87 3.94a94.55 94.55 0 0 1 12.25 17.07 47.71 47.71 0 0 1 -27.59 3 31 31 0 0 1 15.34-20.07zm-6.57 28a54.47 54.47 0 0 0 22-4.72c.87 1.82 1.65 3.61 2.39 5.5a54.4 54.4 0 0 0 -25.77 19.36 30.85 30.85 0 0 1 -8.26-21 71.29 71.29 0 0 0 9.64.82z" fill="#ffffff" data-original="#ffffff"></path></g></g></g></svg>