<svg xmlns="http://www.w3.org/2000/svg" version="1.1" xmlns:xlink="http://www.w3.org/1999/xlink" xmlns:svgjs="http://svgjs.com/svgjs" width="512" height="512" x="0" y="0" viewBox="0 0 512 512" style="enable-background:new 0 0 512 512" xml:space="preserve" class=""><g><linearGradient id="SVGID_1_" gradientUnits="userSpaceOnUse" x1="31.864" x2="455.091" y1="432.947" y2="9.72"><stop offset="0" stop-color="#fff3ee" stop-opacity="0"></stop><stop offset=".2938" stop-color="#ffeade" stop-opacity=".373"></stop><stop offset=".7874" stop-color="#ffd6bb"></stop></linearGradient><g><g><path d="m410.727 239.264c-37.565-70.15 30.138-60.749 59.78-107.441 37.407-58.924 14.317-129.923-32.748-104.207-151.078 82.546-163.765-29.872-277.941-27.581-91.664 1.839-160.908 81.412-76.225 153.986 38.713 33.178 56.076 91.724 6.786 120.332-96.88 56.229-91.384 214.885 28.879 183.56 77.128-20.09 94.898-21.099 143.63 43.197 15.404 20.324 55.009 10.213 63.186-13.943 10.905-32.216-6.278-70.852 7.401-101.668 8.908-20.068 36.376-7.249 52.973-2.31 31.943 9.507 76.472-4.092 86.606-37.996 13.593-45.477-43.605-70.966-62.327-105.929z" fill="url(#SVGID_1_)" data-original="url(#SVGID_1_)"></path></g><g><g fill="#00c" opacity=".1"><path d="m478.958 268.238c-7.318-107.264-93.321-193.267-200.585-200.585-8.023-.547-14.847 5.792-14.847 13.834v3.342c-109.318 0-198.254 88.936-198.254 198.255 0 50.774 19.194 97.144 50.697 132.255v72.766c0 4.503 3.65 8.154 8.153 8.154h27.099c4.503 0 8.154-3.65 8.154-8.154v-36.401c6.005 3.723 12.218 7.141 18.626 10.218v26.183c0 4.503 3.65 8.154 8.153 8.154h27.099c4.503 0 8.154-3.65 8.154-8.154v-11.285c13.58 2.95 27.669 4.518 42.119 4.518 109.318 0 198.255-88.937 198.255-198.255h3.342c8.043.002 14.383-6.822 13.835-14.845zm-118.653 14.847c0 53.364-43.415 96.778-96.779 96.778-15.088 0-29.379-3.473-42.119-9.657v-21.879c0-4.503-3.651-8.154-8.154-8.154h-27.099c-.235 0-.467.016-.697.035-11.755-16.021-18.709-35.774-18.709-57.124 0-53.364 43.415-96.779 96.778-96.779v6.641c0 6.844 4.999 12.652 11.764 13.689 33.247 5.095 59.59 31.438 64.685 64.685 1.037 6.765 6.845 11.764 13.689 11.764h6.641z" fill="#0000cc" data-original="#0000cc" class=""></path><path d="m89.189 438.293h-27.099c-4.503 0-8.154 3.65-8.154 8.154v41.659c0 4.503 3.651 8.154 8.154 8.154h27.099c4.503 0 8.153-3.65 8.153-8.154v-41.659c.001-4.504-3.65-8.154-8.153-8.154z" fill="#0000cc" data-original="#0000cc" class=""></path></g><g><g><g><path d="m263.526 457.339c-109.318 0-198.254-88.937-198.254-198.255s88.936-198.254 198.254-198.254 198.255 88.937 198.255 198.255-88.937 198.254-198.255 198.254zm0-295.033c-53.363 0-96.778 43.414-96.778 96.778s43.415 96.778 96.778 96.778c53.364 0 96.779-43.414 96.779-96.778s-43.415-96.778-96.779-96.778z" fill="#8383ff" data-original="#8383ff"></path><path d="m263.528 60.833v101.47c53.36 0 96.78 43.42 96.78 96.78 0 8.28-1.05 16.33-3.01 24h103.03c.96-7.87 1.45-15.88 1.45-24 0-109.32-88.93-198.25-198.25-198.25z" fill="#6c6cff" data-original="#6c6cff"></path><path d="m374.544 295.262c-15.267 46.733-59.251 80.601-111.017 80.601-64.392 0-116.777-52.387-116.777-116.778 0-50.341 32.019-93.344 76.76-109.714v-64.01c-79.086 18.21-138.237 89.188-138.237 173.724 0 98.29 79.965 178.254 178.254 178.254 85.897 0 157.782-61.076 174.548-142.077z" fill="#9494ff" data-original="#9494ff"></path></g></g><g><g><path d="m465.124 259.084h-111.459c-6.844 0-12.652-4.999-13.689-11.764-5.095-33.247-31.439-59.59-64.685-64.685-6.765-1.037-11.764-6.845-11.764-13.689v-111.459c0-8.042 6.823-14.382 14.847-13.834 107.264 7.318 193.267 93.321 200.585 200.585.547 8.023-5.793 14.846-13.835 14.846z" fill="#ffc599" data-original="#ffc599" class=""></path></g><g><g><path d="m282.278 61.723v102.41c38.57 7.6 68.99 38.19 76.32 76.85h102.36c-8.61-94.69-84.08-170.36-178.68-179.26z" fill="#ff9d33" data-original="#ff9d33" class=""></path></g></g></g></g><g><g><path d="m89.189 472.26h-27.099c-4.503 0-8.153-3.65-8.153-8.154v-41.66c0-4.503 3.65-8.154 8.153-8.154h27.099c4.503 0 8.153 3.65 8.153 8.154v41.66c.001 4.503-3.65 8.154-8.153 8.154z" fill="#ff6c6c" data-original="#ff6c6c" class=""></path></g><g><path d="m151.221 472.26h-27.099c-4.503 0-8.154-3.65-8.154-8.154v-83.904c0-4.503 3.65-8.154 8.154-8.154h27.099c4.503 0 8.154 3.65 8.154 8.154v83.904c0 4.503-3.651 8.154-8.154 8.154z" fill="#ffc599" data-original="#ffc599" class=""></path></g><g><g><path d="m213.254 472.26h-27.099c-4.503 0-8.153-3.65-8.153-8.154v-139.78c0-4.503 3.65-8.154 8.153-8.154h27.099c4.503 0 8.154 3.65 8.154 8.154v139.78c-.001 4.503-3.651 8.154-8.154 8.154z" fill="#ff9d33" data-original="#ff9d33" class=""></path></g><g fill="#00c"><path d="m483.947 243.897c-3.622-53.083-26.445-103.146-64.267-140.967-37.82-37.821-87.884-60.644-140.968-64.266-5.209-.36-10.389 1.483-14.202 5.046-3.412 3.188-5.504 7.559-5.901 12.182-109.813 2.623-198.339 92.761-198.339 203.188 0 49.453 17.997 97.009 50.699 134.15v70.876c0 7.253 5.9 13.154 13.153 13.154h27.1c7.253 0 13.153-5.901 13.153-13.154v-27.654c2.843 1.597 5.721 3.123 8.626 4.576v23.079c0 7.253 5.9 13.153 13.153 13.153h27.1c7.253 0 13.153-5.9 13.153-13.153v-5.177c12.171 2.259 24.628 3.411 37.123 3.411 110.427 0 200.565-88.526 203.188-198.338 4.622-.397 8.995-2.489 12.182-5.901 3.563-3.816 5.403-8.993 5.047-14.205zm-270.693 67.276h-25.23c-10.647-15.357-16.274-33.308-16.274-52.093 0-48.923 38.487-89.025 86.776-91.632v1.498c0 9.375 6.731 17.21 16.006 18.632 30.889 4.734 55.768 29.612 60.501 60.499 1.421 9.275 9.256 16.007 18.631 16.007h1.509c-2.608 48.289-42.714 86.775-91.642 86.775-12.951 0-25.422-2.645-37.123-7.854v-18.68c-.001-7.252-5.901-13.152-13.154-13.152zm-62.032 156.087h-27.1c-1.738 0-3.153-1.415-3.153-3.154v-83.904c0-1.739 1.415-3.153 3.153-3.153h27.1c1.738 0 3.153 1.415 3.153 3.153v83.904c0 1.739-1.415 3.154-3.153 3.154zm65.185-3.154c0 1.739-1.415 3.153-3.153 3.153h-27.1c-1.738 0-3.153-1.415-3.153-3.153v-92.911c0-2.761-2.238-5-5-5s-5 2.239-5 5v58.579c-2.917-1.555-5.796-3.186-8.626-4.886v-44.686c0-7.253-5.9-13.153-13.153-13.153h-27.1c-6.453 0-11.824 4.675-12.933 10.813-26.474-33.88-40.92-75.572-40.92-118.782 0-104.886 83.996-190.523 188.257-193.186v91.54c-53.807 2.618-96.776 47.208-96.776 101.646 0 19.708 5.589 38.587 16.187 54.992-3.005 2.413-4.936 6.11-4.936 10.255v20.146c0 2.761 2.238 5 5 5s5-2.239 5-5v-20.146c0-1.739 1.415-3.153 3.153-3.153h27.1c1.738 0 3.153 1.415 3.153 3.153zm255.185-212.832c-1.692 1.812-3.99 2.811-6.468 2.811h-46.084c-2.762 0-5 2.239-5 5s2.238 5 5 5h37.676c-2.663 104.26-88.3 188.255-193.186 188.255-12.51 0-24.976-1.216-37.123-3.594v-94.901c11.795 4.653 24.247 7.014 37.123 7.014 54.444 0 99.038-42.969 101.656-96.775h27.132c2.762 0 5-2.239 5-5s-2.238-5-5-5h-38.654c-4.4 0-8.079-3.163-8.746-7.521-2.662-17.372-10.682-33.167-23.192-45.677s-28.306-20.53-45.678-23.192c-4.358-.668-7.521-4.347-7.521-8.747v-111.46c0-2.478.998-4.775 2.811-6.468 1.823-1.704 4.194-2.547 6.695-2.378 104.569 7.135 188.804 91.369 195.938 195.936.17 2.495-.675 4.873-2.379 6.697z" fill="#0000cc" data-original="#0000cc" class=""></path><path d="m89.189 409.293h-27.1c-7.253 0-13.153 5.9-13.153 13.153v41.66c0 7.253 5.9 13.154 13.153 13.154h27.1c7.253 0 13.153-5.901 13.153-13.154v-41.66c.001-7.253-5.9-13.153-13.153-13.153zm3.154 54.813c0 1.739-1.415 3.154-3.153 3.154h-27.1c-1.738 0-3.153-1.415-3.153-3.154v-41.66c0-1.739 1.415-3.153 3.153-3.153h27.1c1.738 0 3.153 1.415 3.153 3.153z" fill="#0000cc" data-original="#0000cc" class=""></path></g></g></g><path d="m369.653 151.817h-1.516v-10.18h9.454c2.761 0 5-2.239 5-5s-2.239-5-5-5h-9.454v-2.514c0-2.761-2.239-5-5-5s-5 2.239-5 5v2.514h-1.516c-8.321 0-15.09 6.769-15.09 15.09s6.769 15.09 15.09 15.09h1.516v10.18h-9.453c-2.761 0-5 2.239-5 5s2.239 5 5 5h9.453v2.514c0 2.761 2.239 5 5 5s5-2.239 5-5v-2.514h1.516c8.32 0 15.089-6.769 15.089-15.09s-6.768-15.09-15.089-15.09zm-13.031 0c-2.807 0-5.09-2.283-5.09-5.09s2.283-5.09 5.09-5.09h1.516v10.18zm13.031 20.18h-1.516v-10.18h1.516c2.806 0 5.089 2.283 5.089 5.09s-2.283 5.09-5.089 5.09z" fill="#ffd6bb" data-original="#ffd6bb"></path><g><path d="m57.937 393.863c-1.279 0-2.56-.488-3.535-1.464l-5.465-5.464-5.465 5.464c-1.951 1.952-5.119 1.952-7.07 0-1.953-1.953-1.953-5.119 0-7.071l9-9c1.951-1.952 5.119-1.952 7.07 0l9 9c1.953 1.953 1.953 5.119 0 7.071-.976.976-2.256 1.464-3.535 1.464z" fill="#6c6cff" data-original="#6c6cff"></path></g><g><path d="m68.03 149.601c-1.279 0-2.56-.488-3.535-1.464-1.953-1.953-1.953-5.119 0-7.071l10-10c1.951-1.952 5.119-1.952 7.07 0 1.953 1.953 1.953 5.119 0 7.071l-10 10c-.975.975-2.255 1.464-3.535 1.464z" fill="#ff6c6c" data-original="#ff6c6c" class=""></path></g><g><path d="m48.937 351.794c-1.279 0-2.56-.488-3.535-1.464-1.953-1.953-1.953-5.119 0-7.071l10-10c1.951-1.952 5.119-1.952 7.07 0 1.953 1.953 1.953 5.119 0 7.071l-10 10c-.976.976-2.256 1.464-3.535 1.464z" fill="#ff9d33" data-original="#ff9d33" class=""></path></g><g><path d="m433.245 428.293c-1.279 0-2.56-.488-3.535-1.464l-5.465-5.464-5.465 5.464c-1.951 1.952-5.119 1.952-7.07 0-1.953-1.953-1.953-5.119 0-7.071l9-9c1.951-1.952 5.119-1.952 7.07 0l9 9c1.953 1.953 1.953 5.119 0 7.071-.975.976-2.256 1.464-3.535 1.464z" fill="#ff6c6c" data-original="#ff6c6c" class=""></path></g><g><path d="m377.137 44.1c-1.279 0-2.56-.488-3.535-1.464l-5.465-5.464-5.465 5.464c-1.951 1.952-5.119 1.952-7.07 0-1.953-1.953-1.953-5.119 0-7.071l9-9c1.951-1.952 5.119-1.952 7.07 0l9 9c1.953 1.953 1.953 5.119 0 7.071-.976.975-2.256 1.464-3.535 1.464z" fill="#6c6cff" data-original="#6c6cff"></path></g></g></g></g></svg>