<svg xmlns="http://www.w3.org/2000/svg" version="1.1" xmlns:xlink="http://www.w3.org/1999/xlink" xmlns:svgjs="http://svgjs.com/svgjs" width="512" height="512" x="0" y="0" viewBox="0 0 512 512" style="enable-background:new 0 0 512 512" xml:space="preserve" class=""><g><linearGradient id="SVGID_1_" gradientUnits="userSpaceOnUse" x1="137.851" x2="434.466" y1="383.706" y2="87.091"><stop offset="0" stop-color="#ffd8d8" stop-opacity="0"></stop><stop offset=".9981" stop-color="#ffb2b2"></stop></linearGradient><g><g><path d="m7.976 181.537c-31.38 69.735 35.269 123.046 105.184 116.847 41.701-3.697 104.951-49.405 128.724-14.437 49.622 72.991-62.725 156.152 51.948 215.918 131.293 68.427 283.295-277.894 188.681-364.635-61.569-56.446-165.175 36.432-189.662-3.951-12.593-20.767 23.103-41.136 33.305-61.634 59.727-120.002-234.443-74.192-318.18 111.892z" fill="url(#SVGID_1_)" data-original="url(#SVGID_1_)"></path></g><g><g><g fill="#0000cb" opacity=".1"><path d="m445.503 223.155 8.456-4.909c4.914-2.852 6.488-9.233 3.424-14.018-20.28-31.67-47.884-58.297-80.348-77.404-36.552-21.511-78.405-32.882-121.035-32.882s-84.483 11.371-121.035 32.883c-32.464 19.107-60.068 45.733-80.349 77.404-3.064 4.784-1.49 11.166 3.424 14.018l8.457 4.909c-17.606 30.333-28.15 65.273-29.351 102.579-.127 3.933 3.065 7.178 7 7.178h188.147c0 8.869 4.873 16.595 12.085 20.661-7.303.325-14.507.952-21.417 1.893-10.988 1.496-19.678 10.182-21.178 21.169-2.885 21.124-2.885 44.976 0 66.099 1.501 10.987 10.191 19.673 21.178 21.169 21.116 2.875 44.961 2.875 66.077 0 10.988-1.496 19.678-10.182 21.178-21.169 2.885-21.124 2.885-44.976 0-66.099-1.501-10.987-10.191-19.673-21.178-21.169-6.91-.941-14.113-1.568-21.417-1.893 6.39-3.602 10.938-10.08 11.892-17.679l23.246 4.496c1.639.317 3.319-.305 4.355-1.615l4.642-5.863h156.097c3.935 0 7.127-3.245 7-7.178-1.2-37.307-11.744-72.248-29.35-102.58z" fill="#0000cb" data-original="#0000cb" class=""></path><path d="m159.066 356.619h-77.342c-6.627 0-12 5.373-12 12v13.691c0 6.627 5.373 12 12 12h77.342c6.627 0 12-5.373 12-12v-13.691c0-6.628-5.372-12-12-12z" fill="#0000cb" data-original="#0000cb" class=""></path><path d="m430.276 356.619h-77.342c-6.627 0-12 5.373-12 12v13.691c0 6.627 5.373 12 12 12h77.342c6.627 0 12-5.373 12-12v-13.691c0-6.628-5.373-12-12-12z" fill="#0000cb" data-original="#0000cb" class=""></path><path d="m352.593 426.59h24.237c2.762 0 5-2.239 5-5s-2.238-5-5-5h-24.237c-2.762 0-5 2.239-5 5s2.238 5 5 5z" fill="#0000cb" data-original="#0000cb" class=""></path><path d="m414.038 435.194h-61.445c-2.762 0-5 2.239-5 5s2.238 5 5 5h61.445c2.762 0 5-2.239 5-5s-2.238-5-5-5z" fill="#0000cb" data-original="#0000cb" class=""></path><path d="m159.407 416.59h-24.237c-2.761 0-5 2.239-5 5s2.239 5 5 5h24.237c2.761 0 5-2.239 5-5s-2.239-5-5-5z" fill="#0000cb" data-original="#0000cb" class=""></path><path d="m159.407 435.194h-61.445c-2.761 0-5 2.239-5 5s2.239 5 5 5h61.445c2.761 0 5-2.239 5-5s-2.239-5-5-5z" fill="#0000cb" data-original="#0000cb" class=""></path></g><g><g><g><g><path d="m310.217 418.733c2.885-21.124 2.885-44.976 0-66.099-1.501-10.987-10.191-19.673-21.178-21.169-21.116-2.875-44.961-2.875-66.077 0-10.988 1.496-19.678 10.182-21.178 21.169-2.885 21.124-2.885 44.976 0 66.099 1.501 10.987 10.191 19.673 21.178 21.169 21.116 2.875 44.961 2.875 66.077 0 10.987-1.496 19.677-10.182 21.178-21.169z" fill="#8282ff" data-original="#8282ff" class=""></path><path d="m279.71 332.91c0 13.09-10.62 23.71-23.71 23.71s-23.71-10.62-23.71-23.71c0-.85.04-1.69.13-2.52 15.4-1.44 31.76-1.44 47.16 0 .09.83.13 1.67.13 2.52z" fill="#6c6cff" data-original="#6c6cff"></path></g><path d="m281.352 398.434c-6.5 14.946-16.785 18.991-25.968 20.089-3.537.422-7.011.209-10.204-.331-.782-.132-1.333-.846-1.257-1.635 1.014-10.511 6.147-26.92 25.885-41.626-.47.114-26.286 6.514-38.987 31.914-.647 1.294-2.557 1.067-2.85-.35-1.846-8.943-2.253-25.054 15.883-32.289 19.817-7.906 25.92-16.582 27.77-20.678.467-1.035 1.853-1.231 2.565-.346 4.718 5.855 16.558 23.64 7.163 45.252z" fill="#ffffff" data-original="#ffffff"></path></g><g><path d="m256 89.94c46.79 0 90.15 14.67 125.74 39.68l-125.74 179.29-125.74-179.29c35.59-25.01 78.95-39.68 125.74-39.68z" fill="#ffaa66" data-original="#ffaa66"></path><path d="m130.256 129.623 125.744 179.289h-211.851c-3.939 0-7.13-3.251-7.003-7.188 2.295-71.177 38.559-133.771 93.11-172.101z" fill="#ffc498" data-original="#ffc498" class=""></path><path d="m381.744 129.623-125.744 179.289h211.851c3.939 0 7.13-3.251 7.003-7.188-2.296-71.177-38.56-133.771-93.11-172.101z" fill="#ff4d4d" data-original="#ff4d4d" class=""></path><path d="m417.182 185.828-128.732 76.817-32.343 46.116.009.151h74.645l92.219-116.468c3.083-3.895-1.532-9.162-5.798-6.616z" fill="#ff2c2c" data-original="#ff2c2c" class=""></path><g><path d="m256 138.726c-93.991 0-170.185 76.195-170.185 170.185h340.371c-.001-93.99-76.195-170.185-170.186-170.185z" fill="#8282ff" data-original="#8282ff" class=""></path></g><path d="m401.145 220.02c-3.708-6.042-7.786-11.832-12.197-17.344l-132.047 78.794c-1.434.856-2.272 2.439-2.173 4.105l1.386 23.337h74.645z" fill="#6c6cff" data-original="#6c6cff"></path><g><g><g><g><g><g><g><path d="m399.513 261.752c-2.043 0-3.96-1.261-4.699-3.293l-.047-.129c-.943-2.595.396-5.464 2.99-6.407 2.597-.944 5.464.395 6.408 2.99l.047.129c.943 2.595-.396 5.464-2.99 6.407-.565.205-1.142.303-1.709.303z" fill="#b2b2ff" data-original="#b2b2ff"></path></g></g></g></g></g></g><g><g><g><g><g><g><path d="m373.021 215.812c-1.42 0-2.83-.601-3.819-1.77l-.089-.105c-1.784-2.107-1.521-5.263.586-7.047 2.11-1.784 5.264-1.521 7.047.586l.089.105c1.784 2.107 1.521 5.263-.586 7.047-.94.795-2.088 1.184-3.228 1.184z" fill="#b2b2ff" data-original="#b2b2ff"></path></g></g></g></g></g></g><g><g><g><g><g><g><path d="m332.403 181.707c-.849 0-1.709-.216-2.497-.672l-.119-.069c-2.391-1.381-3.209-4.44-1.827-6.831 1.383-2.391 4.438-3.21 6.831-1.828l.119.069c2.391 1.381 3.209 4.44 1.827 6.831-.926 1.604-2.606 2.5-4.334 2.5z" fill="#b2b2ff" data-original="#b2b2ff"></path></g></g></g></g></g></g><g><g><g><g><g><g><path d="m282.59 163.547c-.288 0-.58-.025-.874-.077l-.136-.024c-2.72-.479-4.535-3.073-4.056-5.792.479-2.72 3.071-4.536 5.792-4.057l.136.024c2.72.479 4.535 3.073 4.056 5.792-.428 2.427-2.537 4.134-4.918 4.134z" fill="#b2b2ff" data-original="#b2b2ff"></path></g></g></g></g></g></g><g><g><g><g><g><g><path d="m229.411 163.547c-2.381 0-4.49-1.707-4.918-4.133-.479-2.719 1.336-5.312 4.056-5.792l.136-.024c2.725-.476 5.312 1.337 5.792 4.057.479 2.719-1.336 5.312-4.056 5.792l-.136.024c-.294.05-.586.076-.874.076z" fill="#b2b2ff" data-original="#b2b2ff"></path></g></g></g></g></g></g><g><g><g><g><g><g><path d="m179.597 181.707c-1.728 0-3.407-.896-4.334-2.5-1.382-2.391-.563-5.449 1.827-6.831l.119-.069c2.392-1.381 5.449-.563 6.831 1.828s.563 5.449-1.827 6.831l-.119.069c-.788.455-1.649.672-2.497.672z" fill="#b2b2ff" data-original="#b2b2ff"></path></g></g></g></g></g></g><g><g><g><g><g><g><path d="m138.979 215.812c-1.138 0-2.281-.386-3.219-1.176-2.112-1.779-2.381-4.934-.602-7.045l.089-.105c1.778-2.111 4.935-2.382 7.045-.602 2.112 1.779 2.381 4.934.602 7.045l-.089.105c-.988 1.174-2.402 1.778-3.826 1.778z" fill="#b2b2ff" data-original="#b2b2ff"></path></g></g></g></g></g></g><g><g><g><g><g><g><path d="m112.486 261.751c-.578 0-1.165-.101-1.739-.314-2.589-.961-3.908-3.839-2.947-6.428l.048-.129c.961-2.588 3.836-3.907 6.428-2.947 2.589.961 3.908 3.839 2.947 6.428l-.048.129c-.748 2.015-2.657 3.261-4.689 3.261z" fill="#b2b2ff" data-original="#b2b2ff"></path></g></g></g></g></g></g></g><g><path d="m436.643 204.297c-4.621 2.682-10.52 1.248-13.421-3.239-16.854-26.066-39.677-47.989-66.476-63.761-30.407-17.896-65.245-27.355-100.746-27.355s-70.339 9.459-100.747 27.355c-26.799 15.772-49.622 37.695-66.476 63.761-2.901 4.487-8.8 5.922-13.421 3.239l-17.316-10.051c-4.914-2.852-6.488-9.233-3.424-14.018 20.281-31.67 47.884-58.297 80.349-77.404 36.552-21.511 78.405-32.882 121.035-32.882s84.483 11.371 121.035 32.883c32.465 19.107 60.068 45.733 80.348 77.404 3.064 4.784 1.49 11.166-3.424 14.018z" fill="#b2b2ff" data-original="#b2b2ff"></path></g><path d="m256 69.942c-37.971 0-75.321 9.028-108.862 26.201l24.595 32.497c26.237-12.265 55.024-18.698 84.267-18.698s58.029 6.433 84.267 18.698l24.595-32.497c-33.541-17.173-70.892-26.201-108.862-26.201z" fill="#9393ff" data-original="#9393ff"></path><g><path d="m307.115 314.775 115.864-146.331c3.084-3.895-1.532-9.162-5.798-6.616l-160.28 95.642c-1.434.856-2.272 2.439-2.173 4.105l2.53 42.587c.121 2.039 1.609 3.737 3.615 4.125l41.886 8.101c1.64.318 3.319-.304 4.356-1.613z" fill="#ff4d4d" data-original="#ff4d4d" class=""></path><path d="m422.78 162.666-164.421 144.177c.638.728 1.512 1.25 2.515 1.444l41.886 8.101c1.639.317 3.319-.305 4.355-1.615l115.864-146.33c1.562-1.972 1.145-4.294-.199-5.777z" fill="#ff6c6c" data-original="#ff6c6c"></path></g><circle cx="256" cy="308.912" fill="#ffaa66" r="23.707" data-original="#ffaa66"></circle><g><path d="m273.009 198.275h-7.745l2.572-23.208c.338-3.053-3.585-4.581-5.401-2.104l-25.863 35.284c-1.453 1.982-.037 4.774 2.42 4.774h7.745l-2.572 23.208c-.338 3.053 3.585 4.581 5.401 2.104l25.863-35.283c1.452-1.983.037-4.775-2.42-4.775z" fill="#ffd5ba" data-original="#ffd5ba" class=""></path></g></g><g><path d="m159.066 370.31h-77.342c-6.627 0-12-5.373-12-12v-13.691c0-6.627 5.373-12 12-12h77.342c6.627 0 12 5.373 12 12v13.691c0 6.627-5.372 12-12 12z" fill="#ffaa66" data-original="#ffaa66"></path><g><path d="m430.276 370.31h-77.342c-6.627 0-12-5.373-12-12v-13.691c0-6.627 5.373-12 12-12h77.342c6.627 0 12 5.373 12 12v13.691c0 6.627-5.373 12-12 12z" fill="#ff4d4d" data-original="#ff4d4d" class=""></path><g><g><g><g><path d="m97.962 356.533c-2.762 0-5-2.239-5-5v-.137c0-2.761 2.238-5 5-5s5 2.239 5 5v.137c0 2.761-2.238 5-5 5z" fill="#ffd5ba" data-original="#ffd5ba" class=""></path></g></g></g><g><g><g><path d="m120.396 356.533c-2.762 0-5-2.239-5-5v-.137c0-2.761 2.238-5 5-5s5 2.239 5 5v.137c0 2.761-2.239 5-5 5z" fill="#ffd5ba" data-original="#ffd5ba" class=""></path></g></g></g><g><g><g><path d="m142.828 356.533c-2.762 0-5-2.239-5-5v-.137c0-2.761 2.238-5 5-5s5 2.239 5 5v.137c0 2.761-2.238 5-5 5z" fill="#ffd5ba" data-original="#ffd5ba" class=""></path></g></g></g></g><g><g><g><g><path d="m369.172 356.533c-2.762 0-5-2.239-5-5v-.137c0-2.761 2.238-5 5-5s5 2.239 5 5v.137c0 2.761-2.238 5-5 5z" fill="#ffb2b2" data-original="#ffb2b2"></path></g></g></g><g><g><g><path d="m391.604 356.533c-2.762 0-5-2.239-5-5v-.137c0-2.761 2.238-5 5-5s5 2.239 5 5v.137c0 2.761-2.238 5-5 5z" fill="#ffb2b2" data-original="#ffb2b2"></path></g></g></g><g><g><g><path d="m414.038 356.533c-2.762 0-5-2.239-5-5v-.137c0-2.761 2.238-5 5-5s5 2.239 5 5v.137c0 2.761-2.238 5-5 5z" fill="#ffb2b2" data-original="#ffb2b2"></path></g></g></g></g></g></g></g><g fill="#0000cb"><path d="m452.276 201.004 4.192-2.433c3.526-2.046 6.1-5.494 7.06-9.457.971-4.005.283-8.118-1.935-11.581-20.669-32.276-49.031-59.6-82.022-79.017-37.319-21.965-80.05-33.574-123.571-33.574s-86.252 11.609-123.571 33.574c-32.99 19.417-61.354 46.74-82.022 79.016-2.218 3.462-2.905 7.575-1.936 11.58.96 3.964 3.532 7.412 7.06 9.459l17.316 10.051c6.929 4.021 15.772 1.892 20.131-4.849 16.401-25.368 38.812-46.865 64.812-62.167 29.64-17.444 63.6-26.665 98.21-26.665s68.57 9.221 98.21 26.665c13.828 8.138 26.596 17.973 38.041 29.275l-137.912 82.294c-3.048 1.819-4.812 5.15-4.602 8.695l1.117 18.805c-11.759 2.138-21.044 11.458-23.122 23.236h-183.586c-.747 0-1.232-.387-1.456-.617-.214-.221-.57-.697-.548-1.399.837-25.973 6.297-51.246 16.229-75.116 1.061-2.55-.146-5.477-2.695-6.537-2.55-1.062-5.476.146-6.537 2.695-10.398 24.992-16.115 51.449-16.99 78.636-.104 3.252 1.089 6.333 3.359 8.678 2.252 2.326 5.401 3.66 8.639 3.66h183.591c.741 4.202 2.399 8.091 4.759 11.454-3.467.315-6.882.692-10.209 1.145-13.188 1.795-23.656 12.259-25.458 25.446-2.928 21.434-2.928 46.019 0 67.453 1.802 13.188 12.271 23.651 25.458 25.446 10.714 1.459 22.212 2.188 33.713 2.188 11.499 0 23.001-.729 33.713-2.188 13.188-1.795 23.656-12.259 25.458-25.446 2.928-21.434 2.928-46.019 0-67.453-1.802-13.188-12.271-23.651-25.458-25.446-3.33-.454-6.747-.834-10.22-1.149 1.63-2.322 2.935-4.887 3.825-7.64l18.492 3.577c.605.117 1.212.174 1.813.174 2.859 0 5.589-1.294 7.411-3.594l3.141-3.967h153.677c3.238 0 6.388-1.334 8.641-3.661 2.271-2.345 3.463-5.427 3.357-8.678-1.132-35.175-10.671-69.863-27.575-100.568zm-92.994-68.016c-31.176-18.348-66.89-28.046-103.282-28.046s-72.106 9.698-103.282 28.046c-27.334 16.087-50.896 38.687-68.139 65.355-1.458 2.255-4.404 2.968-6.713 1.63l-17.316-10.051c-1.196-.694-2.034-1.818-2.36-3.164-.321-1.328-.096-2.689.638-3.833 19.826-30.96 47.031-57.168 78.674-75.791 35.783-21.06 76.76-32.192 118.499-32.192s82.716 11.132 118.499 32.192c31.644 18.624 58.848 44.832 78.674 75.792.732 1.144.959 2.505.637 3.834-.326 1.345-1.164 2.468-2.36 3.163l-17.317 10.051c-2.307 1.341-5.255.623-6.712-1.63-3.198-4.946-6.659-9.794-10.286-14.462l9.766-12.334c2.884-3.643 2.76-8.628-.303-12.122-3.062-3.495-7.986-4.273-11.978-1.891l-13.532 8.075c-12.496-12.652-26.528-23.63-41.807-32.622zm-103.282 157.217c10.315 0 18.707 8.392 18.707 18.707s-8.392 18.707-18.707 18.707-18.707-8.392-18.707-18.707 8.392-18.707 18.707-18.707zm32.363 46.214c8.755 1.192 15.704 8.138 16.899 16.892 2.811 20.573 2.811 44.172 0 64.746-1.195 8.754-8.145 15.7-16.899 16.892-20.566 2.8-44.16 2.8-64.727 0-8.755-1.192-15.704-8.138-16.899-16.892-2.811-20.573-2.811-44.172 0-64.746 1.195-8.754 8.145-15.7 16.899-16.892 6.289-.856 12.895-1.445 19.648-1.781 3.835 1.904 8.15 2.981 12.715 2.981 4.562 0 8.869-1.085 12.702-2.987 6.758.335 13.371.93 19.662 1.787zm15.032-25-18.716-3.62c-.524-13.669-10.649-24.913-23.81-27.173l-1.131-19.027 157.535-94.003zm165.915-8.125c-.223.23-.709.617-1.456.617h-145.76l88.647-111.957c2.906 3.839 5.682 7.798 8.281 11.819 2.871 4.439 7.685 6.879 12.616 6.878 2.559 0 5.147-.656 7.514-2.03l4.474-2.597c16.078 29.279 25.151 62.342 26.231 95.87.023.704-.333 1.179-.547 1.4z" fill="#0000cb" data-original="#0000cb" class=""></path><path d="m159.066 327.619h-77.342c-9.374 0-17 7.626-17 17v13.691c0 9.374 7.626 17 17 17h77.343c9.374 0 17-7.626 17-17v-13.691c-.001-9.374-7.627-17-17.001-17zm7 30.691c0 3.86-3.141 7-7 7h-77.342c-3.859 0-7-3.14-7-7v-13.691c0-3.86 3.141-7 7-7h77.343c3.859 0 7 3.14 7 7v13.691z" fill="#0000cb" data-original="#0000cb" class=""></path><path d="m430.276 327.619h-24.229c-2.762 0-5 2.239-5 5s2.238 5 5 5h24.229c3.859 0 7 3.14 7 7v13.691c0 3.86-3.141 7-7 7h-77.343c-3.859 0-7-3.14-7-7v-13.691c0-3.86 3.141-7 7-7h24.73c2.762 0 5-2.239 5-5s-2.238-5-5-5h-24.73c-9.374 0-17 7.626-17 17v13.691c0 9.374 7.626 17 17 17h77.343c9.374 0 17-7.626 17-17v-13.691c0-9.374-7.626-17-17-17z" fill="#0000cb" data-original="#0000cb" class=""></path><path d="m352.593 402.59h24.237c2.762 0 5-2.239 5-5s-2.238-5-5-5h-24.237c-2.762 0-5 2.239-5 5s2.238 5 5 5z" fill="#0000cb" data-original="#0000cb" class=""></path><path d="m414.038 411.194h-61.445c-2.762 0-5 2.239-5 5s2.238 5 5 5h61.445c2.762 0 5-2.239 5-5s-2.238-5-5-5z" fill="#0000cb" data-original="#0000cb" class=""></path><path d="m159.407 392.59h-24.237c-2.762 0-5 2.239-5 5s2.238 5 5 5h24.237c2.762 0 5-2.239 5-5s-2.238-5-5-5z" fill="#0000cb" data-original="#0000cb" class=""></path><path d="m159.407 411.194h-61.445c-2.762 0-5 2.239-5 5s2.238 5 5 5h61.445c2.762 0 5-2.239 5-5s-2.238-5-5-5z" fill="#0000cb" data-original="#0000cb" class=""></path></g></g></g><g><path d="m417.686 86.441c-1.279 0-2.56-.488-3.535-1.464l-4.465-4.464-4.465 4.464c-1.951 1.952-5.119 1.952-7.07 0-1.953-1.953-1.953-5.119 0-7.071l8-8c1.951-1.952 5.119-1.952 7.07 0l8 8c1.953 1.953 1.953 5.119 0 7.071-.976.976-2.256 1.464-3.535 1.464z" fill="#8282ff" data-original="#8282ff" class=""></path></g><g><path d="m184.194 469.15c-1.279 0-2.56-.488-3.535-1.464l-4.465-4.464-4.465 4.464c-1.951 1.952-5.119 1.952-7.07 0-1.953-1.953-1.953-5.119 0-7.071l8-8c1.951-1.952 5.119-1.952 7.07 0l8 8c1.953 1.953 1.953 5.119 0 7.071-.975.976-2.255 1.464-3.535 1.464z" fill="#8282ff" data-original="#8282ff" class=""></path></g><g><path d="m385.524 66.228c-2.762 0-5-2.239-5-5 0-2.757-2.243-5-5-5s-5 2.243-5 5c0 2.761-2.238 5-5 5s-5-2.239-5-5c0-8.271 6.729-15 15-15s15 6.729 15 15c0 2.761-2.238 5-5 5z" fill="#ffaa66" data-original="#ffaa66"></path></g><g><path d="m349.352 473.799c-2.762 0-5-2.239-5-5 0-2.757-2.243-5-5-5s-5 2.243-5 5c0 2.761-2.238 5-5 5s-5-2.239-5-5c0-8.271 6.729-15 15-15s15 6.729 15 15c0 2.761-2.239 5-5 5z" fill="#ffaa66" data-original="#ffaa66"></path></g><g><path d="m131.886 77.901c-2.762 0-5-2.239-5-5 0-2.757-2.243-5-5-5s-5 2.243-5 5c0 2.761-2.238 5-5 5s-5-2.239-5-5c0-8.271 6.729-15 15-15s15 6.729 15 15c0 2.761-2.239 5-5 5z" fill="#ff6c6c" data-original="#ff6c6c"></path></g></g></g></g></svg>