<svg xmlns="http://www.w3.org/2000/svg" version="1.1" xmlns:xlink="http://www.w3.org/1999/xlink" xmlns:svgjs="http://svgjs.com/svgjs" width="512" height="512" x="0" y="0" viewBox="0 0 512 512" style="enable-background:new 0 0 512 512" xml:space="preserve" class=""><g><linearGradient id="SVGID_1_" gradientUnits="userSpaceOnUse" x1="5.399" x2="506.601" y1="256" y2="256"><stop offset=".0007233796" stop-color="#ffd6bb"></stop><stop offset=".9993" stop-color="#ffd9d9" stop-opacity="0"></stop></linearGradient><g><g><path d="m461.173 27.352c-63.757-37.987-146.258-35.878-208.873 3.041-35.18 21.866-62.374 53.403-93.212 80.552-27.022 23.789-58.445 40.758-86.353 63.204-101.21 81.403-91.553 300.961 50.962 330.125 61.777 12.642 146.21 16.696 182.519-43.642 34.62-57.531 46.232-116.383 113.876-146.942 23.573-10.65 62.975-10.113 78.944-33.45 20.152-29.45-4.853-60.043-18.192-85.707-17.19-33.074-20.795-65.682-8.699-101.16 10.298-30.211 17.549-43.782-10.972-66.021z" fill="url(#SVGID_1_)" data-original="url(#SVGID_1_)"></path></g><g><path d="m448.021 217.015h-34.263c-4.712 0-8.531 3.82-8.531 8.531v3.27h-23.195v-161.12c0-2.76-2.23-5-5-5h-187.53l-59.54 59.52v41.222c-23.601 4.755-41.375 25.602-41.375 50.604 0 .997.035 1.985.091 2.967h-24.698c-4.71 0-8.53 3.82-8.53 8.54v156.4c0 4.71 3.82 8.53 8.53 8.53h34.26c4.71 0 8.53-3.82 8.53-8.53v-5.87h29.213c-.715 6.203 1.291 12.661 6.049 17.419 6.187 6.187 15.248 7.744 22.885 4.677l2.398 2.398c-3.067 7.637-1.51 16.698 4.677 22.885 6.187 6.187 15.248 7.744 22.885 4.677l2.398 2.398c-3.067 7.637-1.51 16.698 4.677 22.885 6.187 6.187 15.248 7.744 22.885 4.677l2.398 2.398c-3.067 7.637-1.51 16.698 4.677 22.885 6.187 6.187 15.248 7.744 22.885 4.677l3.04 3.04c8.27 8.27 21.69 8.27 29.96 0 8.27-8.28 8.27-21.69 0-29.96 8.27 8.27 21.69 8.27 29.96 0 4.14-4.14 6.21-9.56 6.21-14.98s-2.07-10.84-6.21-14.98c8.28 8.27 21.69 8.27 29.96 0 8.28-8.28 8.28-21.69 0-29.96 8.18 8.17 21.38 8.27 29.67.28 6.976-6.715 8.13-17.215 3.773-25.418h24.064v5.869c0 4.712 3.82 8.531 8.531 8.531h34.263c4.712 0 8.531-3.82 8.531-8.531v-156.4c.003-4.712-3.816-8.531-8.528-8.531z" fill="#0000cc" opacity=".1" data-original="#0000cc" class=""></path><g><g><path d="m382.033 284.179v-240.482c0-2.76-2.23-5-5-5h-187.53l-59.54 59.52v185.962z" fill="#ffffff" data-original="#ffffff"></path><path d="m129.968 98.221 54.525.005c2.761 0 5-2.238 5-5l.005-54.525z" fill="#ffab66" data-original="#ffab66" class=""></path></g><g><g><path d="m269.258 212.312-110.753 110.753c-8.399 8.399-8.601 22.347-.045 30.585 8.294 7.985 21.492 7.89 29.668-.287-8.274 8.274-8.274 21.688 0 29.961 8.273 8.273 21.688 8.273 29.961 0-8.273 8.273-8.273 21.687 0 29.961 8.274 8.274 21.688 8.274 29.961 0-8.274 8.274-8.274 21.688 0 29.961 8.273 8.273 21.687 8.273 29.961 0l91.165-91.165h54.236v-147.265h-136.057c-6.787 0-13.297 2.697-18.097 7.496z" fill="#ffab66" data-original="#ffab66" class=""></path><g><path d="m377.39 377.5c-8.29 7.99-21.49 7.89-29.67-.28 8.28 8.27 8.28 21.68 0 29.96-8.27 8.27-21.68 8.27-29.96 0 4.14 4.14 6.21 9.56 6.21 14.98s-2.07 10.84-6.21 14.98c-8.27 8.27-21.69 8.27-29.96 0 8.27 8.27 8.27 21.68 0 29.96-8.27 8.27-21.69 8.27-29.96 0l-115.02-115.02h-54.23v-147.26h136.05c6.79 0 13.3 2.69 18.1 7.49l134.61 134.61c8.4 8.4 8.6 22.34.04 30.58z" fill="#ffd6bb" data-original="#ffd6bb" class=""></path><g fill="#ffc599"><path d="m191.84 214.04c0 28.51-23.12 51.63-51.63 51.63s-51.62-23.12-51.62-51.63c0-3.15.28-6.23.83-9.22h101.59c.55 2.99.83 6.07.83 9.22z" fill="#ffc599" data-original="#ffc599" class=""></path><path d="m308.59 278.16h-10.64c-6.5 0-12.73 2.58-17.33 7.17-4.35 4.36-23.44 23.45-28.97 28.97-4.17 4.17-9.63 6.26-15.09 6.26-5.47 0-10.93-2.09-15.1-6.26-8.33-8.34-8.33-21.85 0-30.19l46.54-46.54z" fill="#ffc599" data-original="#ffc599" class=""></path></g></g><g fill="#ffab66"><g><path d="m261.876 459.382 19.945-19.945c8.273-8.273 8.273-21.687 0-29.961-8.273-8.273-21.687-8.273-29.961 0l-19.945 19.945c-8.273 8.273-8.273 21.687 0 29.961 8.273 8.274 21.687 8.274 29.961 0z" fill="#ffab6b" data-original="#000000" class=""></path><path d="m231.915 429.421 19.945-19.945c8.273-8.273 8.273-21.687 0-29.961-8.273-8.273-21.687-8.273-29.961 0l-19.945 19.945c-8.273 8.273-8.273 21.687 0 29.961 8.273 8.274 21.687 8.274 29.961 0z" fill="#ffab6b" data-original="#000000" class=""></path><path d="m201.954 399.46 19.945-19.945c8.273-8.273 8.273-21.687 0-29.961-8.273-8.273-21.687-8.273-29.961 0l-19.945 19.946c-8.273 8.273-8.273 21.687 0 29.961 8.273 8.273 21.687 8.273 29.961-.001z" fill="#ffab6b" data-original="#000000" class=""></path><path d="m171.993 369.5 19.945-19.945c8.273-8.273 8.273-21.687 0-29.961-8.273-8.273-21.687-8.273-29.961 0l-19.945 19.945c-8.273 8.273-8.273 21.687 0 29.961 8.273 8.273 21.687 8.273 29.961 0z" fill="#ffab6b" data-original="#000000" class=""></path></g><path d="m348.733 204.816h-61.373c-6.791 0-13.3 2.696-18.103 7.499l-47.794 47.793c-8.337 8.337-8.337 21.854 0 30.192l.001.001c8.336 8.336 21.851 8.338 30.188.002 5.525-5.525 24.613-24.612 28.97-28.968 4.599-4.597 10.829-7.174 17.332-7.174h50.779z" fill="#ffab66" data-original="#ffab66" class=""></path></g></g><g><g><path d="m106.77 201.55v156.4c0 4.71-3.82 8.53-8.53 8.53h-34.26c-4.71 0-8.53-3.82-8.53-8.53v-156.4c0-4.72 3.82-8.54 8.53-8.54h34.26c4.71 0 8.53 3.82 8.53 8.54z" fill="#b3b3ff" data-original="#b3b3ff" class=""></path><path d="m106.77 204.82v48.55c-11.13-9.47-18.18-23.58-18.18-39.33 0-3.15.28-6.23.83-9.22z" fill="#9494ff" data-original="#9494ff"></path></g><path d="m448.021 366.482h-34.263c-4.712 0-8.531-3.82-8.531-8.531v-156.405c0-4.712 3.82-8.531 8.531-8.531h34.263c4.712 0 8.531 3.82 8.531 8.531v156.405c0 4.712-3.819 8.531-8.531 8.531z" fill="#ff6c6c" data-original="#ff6c6c" class=""></path></g></g><g><g><g><path d="m266.138 176.188h-13.651c-2.761 0-5-2.239-5-5v-95.283c0-2.761 2.239-5 5-5h13.651c2.761 0 5 2.239 5 5v95.283c0 2.761-2.239 5-5 5z" fill="#ffab66" data-original="#ffab66" class=""></path><path d="m247.487 128.768v42.42c0 2.761 2.239 5 5 5h13.651c2.761 0 5-2.239 5-5v-42.42z" fill="#ff6c6c" data-original="#ff6c6c" class=""></path></g><g><path d="m306.683 176.188h-13.651c-2.761 0-5-2.239-5-5v-65.283c0-2.761 2.239-5 5-5h13.651c2.761 0 5 2.239 5 5v65.283c0 2.761-2.239 5-5 5z" fill="#ffab66" data-original="#ffab66" class=""></path><path d="m288.032 158.768v12.42c0 2.761 2.239 5 5 5h13.651c2.761 0 5-2.239 5-5v-12.42z" fill="#ff6c6c" data-original="#ff6c6c" class=""></path></g><g><path d="m347.227 176.188h-13.651c-2.761 0-5-2.239-5-5v-95.283c0-2.761 2.239-5 5-5h13.651c2.761 0 5 2.239 5 5v95.283c0 2.761-2.238 5-5 5z" fill="#ffab66" data-original="#ffab66" class=""></path><path d="m328.576 98.768v72.42c0 2.761 2.239 5 5 5h13.651c2.761 0 5-2.239 5-5v-72.42z" fill="#ff6c6c" data-original="#ff6c6c" class=""></path></g></g><g><g><path d="m220.508 138.702h-10.52c-2.762 0-5-2.239-5-5s2.238-5 5-5h10.52c2.762 0 5 2.239 5 5s-2.238 5-5 5z" fill="#ffab66" data-original="#ffab66" class=""></path></g><g><path d="m187.398 138.702h-4.52c-2.762 0-5-2.239-5-5s2.238-5 5-5h4.52c2.762 0 5 2.239 5 5s-2.238 5-5 5z" fill="#ffab66" data-original="#ffab66" class=""></path></g><g><path d="m220.508 158.978h-55.74c-2.762 0-5-2.239-5-5s2.238-5 5-5h55.74c2.762 0 5 2.239 5 5s-2.238 5-5 5z" fill="#8383ff" data-original="#8383ff" class=""></path></g><g><path d="m220.508 176.254h-55.74c-2.762 0-5-2.239-5-5s2.238-5 5-5h55.74c2.762 0 5 2.239 5 5s-2.238 5-5 5z" fill="#8383ff" data-original="#8383ff" class=""></path></g></g></g></g><g><g><circle cx="140.213" cy="190.043" fill="#4d4dff" r="51.625" data-original="#4d4dff" class=""></circle><path d="m448.021 188.015h-34.262c-6.874 0-12.554 5.156-13.408 11.802h-13.314v-156.116c0-5.514-4.486-10-10-10h-45.542c-2.762 0-5 2.238-5 5s2.238 5 5 5h45.542v156.115h-89.678c-8.174 0-15.858 3.184-21.639 8.964l-9.72 9.72-9.723-9.723c-5.778-5.778-13.461-8.961-21.633-8.961h-28.668c.555-3.177.862-6.439.862-9.773 0-31.224-25.402-56.626-56.625-56.626-1.769 0-3.517.093-5.245.252v-30.448l49.525.004c5.513 0 10-4.485 10-10l.004-49.524h104.008c2.762 0 5-2.238 5-5s-2.238-5-5-5h-109.007c-1.3 0-2.615.544-3.535 1.464l-59.53 59.52c-.92.92-1.465 2.236-1.465 3.536v37.298c-23.214 6.5-40.441 27.447-41.328 52.496h-19.66c-7.461 0-13.531 6.07-13.531 13.531v156.405c0 7.461 6.07 13.531 13.531 13.531h34.263c7.461 0 13.531-6.07 13.531-13.531v-.869h19.192c.568 5.827 3.078 11.499 7.531 15.952 4.946 4.946 11.521 7.671 18.516 7.671 1.392 0 2.765-.112 4.114-.324-1.257 7.996 1.182 16.466 7.331 22.615 5.105 5.105 11.811 7.657 18.516 7.657 1.377 0 2.754-.114 4.117-.329-1.264 8.001 1.175 16.48 7.328 22.634 5.105 5.104 11.811 7.656 18.516 7.656 1.377 0 2.754-.114 4.117-.329-1.264 8.001 1.175 16.48 7.328 22.634 5.105 5.104 11.811 7.656 18.517 7.656 2.194 0 4.388-.279 6.526-.825l.883.883c4.946 4.946 11.522 7.671 18.516 7.671s13.57-2.725 18.516-7.671c6.151-6.15 8.597-14.626 7.336-22.625 7.999 1.26 16.475-1.185 22.625-7.336 4.946-4.945 7.67-11.521 7.67-18.516 0-1.383-.106-2.75-.315-4.091 1.341.209 2.708.315 4.091.315 6.994 0 13.57-2.724 18.516-7.67 6.161-6.16 8.604-14.651 7.33-22.662 7.853 1.232 16.177-1.076 22.271-6.945 5.006-4.819 7.8-11.374 7.867-18.457.018-1.877-.169-3.742-.537-5.564h12.038v.869c0 7.461 6.07 13.531 13.531 13.531h34.262c7.461 0 13.531-6.07 13.531-13.531v-156.405c-.002-7.461-6.073-13.531-13.533-13.531zm-305.982-94.793 42.457-42.45-.003 42.454zm-1.826 50.195c25.709 0 46.625 20.916 46.625 46.626 0 25.709-20.916 46.625-46.625 46.625s-46.625-20.916-46.625-46.625c0-25.71 20.916-46.626 46.625-46.626zm-41.971 218.065h-34.263c-1.947 0-3.531-1.584-3.531-3.531v-156.405c0-1.947 1.584-3.531 3.531-3.531h20.181c1.866 13.182 8.284 24.916 17.613 33.557v126.379c0 1.947-1.584 3.531-3.531 3.531zm58.77 9.223c-4.323 0-8.388-1.684-11.445-4.741-6.311-6.311-6.311-16.579 0-22.891l19.945-19.944c3.057-3.058 7.122-4.741 11.445-4.741s8.388 1.684 11.445 4.741c6.311 6.311 6.311 16.579 0 22.891l-19.945 19.944c-3.057 3.057-7.122 4.741-11.445 4.741zm29.961 29.961c-4.323 0-8.388-1.684-11.445-4.741-6.311-6.311-6.311-16.579 0-22.891l19.945-19.944c3.057-3.058 7.122-4.741 11.445-4.741s8.388 1.684 11.445 4.741c6.311 6.312 6.311 16.579 0 22.891l-19.945 19.945c-3.057 3.056-7.122 4.74-11.445 4.74zm29.962 29.961c-4.323 0-8.388-1.684-11.445-4.741-6.311-6.311-6.311-16.579 0-22.89l19.945-19.945c3.155-3.155 7.3-4.732 11.445-4.732s8.29 1.577 11.445 4.733c3.058 3.057 4.741 7.121 4.741 11.444s-1.684 8.388-4.741 11.445l-19.945 19.945c-3.058 3.057-7.123 4.741-11.445 4.741zm18.515 25.22c-6.311-6.311-6.311-16.579 0-22.89l19.945-19.944c3.155-3.156 7.3-4.733 11.445-4.733s8.29 1.578 11.445 4.732c6.311 6.312 6.311 16.579 0 22.891l-19.945 19.944c-6.311 6.313-16.58 6.309-22.89 0zm48.815 7.716c-3.057 3.058-7.121 4.741-11.444 4.741-3.578 0-6.97-1.169-9.77-3.301.817-.642 1.608-1.332 2.36-2.084 0-.001 0-.001 0-.001l19.945-19.945c.157-.157.304-.32.457-.48 2.062 2.772 3.193 6.108 3.193 9.625 0 4.322-1.684 8.387-4.741 11.445zm99.684-116.481c-.908-1.318-1.929-2.562-3.068-3.7l-66.968-66.968c-1.951-1.953-5.119-1.953-7.07 0-1.953 1.952-1.953 5.118 0 7.07l66.968 66.968c3.166 3.167 4.958 7.577 4.915 12.1-.042 4.376-1.747 8.406-4.803 11.349-6.306 6.07-16.474 5.973-22.665-.221-.003-.003-.007-.005-.011-.009l-63.575-63.576c-1.951-1.953-5.119-1.953-7.07 0-1.953 1.952-1.953 5.118 0 7.07l63.584 63.585c6.311 6.312 6.311 16.58.001 22.891-6.311 6.311-16.58 6.311-22.891 0-.002-.002-.004-.003-.005-.004l-63.58-63.581c-1.952-1.952-5.117-1.953-7.071 0-1.953 1.952-1.953 5.118 0 7.07l63.585 63.586.003.003c3.054 3.057 4.737 7.12 4.737 11.441 0 4.323-1.684 8.388-4.74 11.445-6.303 6.303-16.552 6.309-22.866.022 3.465-9.311 1.469-20.211-6.004-27.682-6.149-6.149-14.619-8.589-22.615-7.331.212-1.349.324-2.723.324-4.114 0-6.994-2.724-13.57-7.67-18.516-6.153-6.154-14.631-8.593-22.633-7.329 1.263-8.001-1.175-16.479-7.328-22.632-4.946-4.946-11.521-7.671-18.516-7.671-1.392 0-2.765.112-4.114.324 1.257-7.996-1.182-16.466-7.331-22.614-4.946-4.946-11.521-7.671-18.516-7.671s-13.57 2.725-18.516 7.671l-19.945 19.944c-3.196 3.197-5.391 7.021-6.586 11.079h-20.137v-108.104c8.364 4.88 18.077 7.691 28.44 7.691 24.27 0 45.017-15.352 53.056-36.852h31.376c5.501 0 10.672 2.143 14.562 6.031l9.723 9.723-31.003 31.002c-4.977 4.977-7.717 11.593-7.717 18.631s2.741 13.655 7.718 18.632c5.137 5.138 11.884 7.706 18.631 7.705 6.746 0 13.492-2.567 18.628-7.703l28.97-28.967c3.684-3.683 8.584-5.711 13.797-5.711h50.779c2.762 0 5-2.238 5-5s-2.238-5-5-5h-50.779c-7.883 0-15.294 3.068-20.867 8.639l-28.971 28.969c-6.373 6.373-16.743 6.373-23.117-.004-3.088-3.087-4.789-7.192-4.789-11.56s1.701-8.473 4.789-11.561l47.792-47.793c3.892-3.891 9.065-6.034 14.568-6.034h112.868v137.266h-16.277zm67.603 10.869c0 1.947-1.584 3.531-3.531 3.531h-34.262c-1.947 0-3.531-1.584-3.531-3.531v-156.405c0-1.947 1.584-3.531 3.531-3.531h34.262c1.947 0 3.531 1.584 3.531 3.531z" fill="#0000cc" data-original="#0000cc" class=""></path></g><path d="m146.016 185.043h-.803v-7.973h7.873c2.761 0 5-2.238 5-5s-2.239-5-5-5h-7.873v-1.691c0-2.762-2.239-5-5-5s-5 2.238-5 5v1.691h-.803c-7.712 0-13.986 6.274-13.986 13.986s6.274 13.986 13.986 13.986h.803v7.972h-7.872c-2.761 0-5 2.238-5 5s2.239 5 5 5h7.872v1.691c0 2.762 2.239 5 5 5s5-2.238 5-5v-1.691h.803c7.712 0 13.986-6.274 13.986-13.986s-6.274-13.985-13.986-13.985zm-11.606 0c-2.198 0-3.986-1.788-3.986-3.986s1.788-3.986 3.986-3.986h.803v7.973h-.803zm11.606 17.972h-.803v-7.972h.803c2.198 0 3.986 1.788 3.986 3.986s-1.788 3.986-3.986 3.986z" fill="#ffffff" data-original="#ffffff"></path></g><g><path d="m96.59 125.506c-1.28 0-2.559-.488-3.536-1.465l-4.464-4.464-4.464 4.464c-1.953 1.953-5.118 1.953-7.071 0-1.953-1.952-1.953-5.118 0-7.07l8-8c1.953-1.953 5.118-1.953 7.071 0l8 8c1.953 1.952 1.953 5.118 0 7.07-.977.977-2.256 1.465-3.536 1.465z" fill="#ff6c6c" data-original="#ff6c6c" class=""></path></g><g><path d="m176.732 454.428c-1.28 0-2.559-.488-3.536-1.465l-4.464-4.464-4.464 4.464c-1.953 1.953-5.118 1.953-7.071 0-1.953-1.952-1.953-5.118 0-7.07l8-8c1.953-1.953 5.118-1.953 7.071 0l8 8c1.953 1.952 1.953 5.118 0 7.07-.976.976-2.256 1.465-3.536 1.465z" fill="#ff6c6c" data-original="#ff6c6c" class=""></path></g><path d="m438.212 145.979h-3v-3c0-2.762-2.238-5-5-5s-5 2.238-5 5v3h-3c-2.762 0-5 2.238-5 5s2.238 5 5 5h3v3c0 2.762 2.238 5 5 5s5-2.238 5-5v-3h3c2.762 0 5-2.238 5-5s-2.238-5-5-5z" fill="#6c6cff" data-original="#6c6cff" class=""></path><path d="m133.424 421.43h-3v-3c0-2.762-2.239-5-5-5s-5 2.238-5 5v3h-3c-2.761 0-5 2.238-5 5s2.239 5 5 5h3v3c0 2.762 2.239 5 5 5s5-2.238 5-5v-3h3c2.761 0 5-2.238 5-5s-2.238-5-5-5z" fill="#ffab66" data-original="#ffab66" class=""></path><g><path d="m430.374 107.226c-1.279 0-2.56-.488-3.535-1.465l-4.465-4.464-3.813 3.813c-1.951 1.953-5.119 1.953-7.07 0-1.953-1.952-1.953-5.118 0-7.07l7.349-7.349c1.951-1.953 5.119-1.953 7.07 0l8 8c1.953 1.952 1.953 5.118 0 7.07-.976.976-2.257 1.465-3.536 1.465z" fill="#ffab66" data-original="#ffab66" class=""></path></g></g></g></g></svg>