<svg xmlns="http://www.w3.org/2000/svg" version="1.1" xmlns:xlink="http://www.w3.org/1999/xlink" xmlns:svgjs="http://svgjs.com/svgjs" width="512" height="512" x="0" y="0" viewBox="0 0 512 512" style="enable-background:new 0 0 512 512" xml:space="preserve" class=""><g><linearGradient id="SVGID_1_" gradientUnits="userSpaceOnUse" x1="256" x2="256" y1="404" y2="108"><stop stop-opacity="1" stop-color="#b40090" offset="0"></stop><stop stop-opacity="1" stop-color="#0066d4" offset="0"></stop><stop stop-opacity="1" stop-color="#0678d8" offset="0.0983"></stop><stop stop-opacity="1" stop-color="#15a7e1" offset="0.3895"></stop><stop stop-opacity="1" stop-color="#21c9e8" offset="0.6474"></stop><stop stop-opacity="1" stop-color="#28ddec" offset="0.8597"></stop></linearGradient><path d="m511.779 250.133-13.359-55.728c-.007-.037-.018-.072-.026-.108l-5.035-21.003c-.143-.592-.352-1.167-.624-1.711-4.805-9.612-14.467-15.583-25.215-15.583h-76.78c-16.95 0-30.74 13.79-30.74 30.74v129.26h-64v-17.159c31.818-5.883 56-33.818 56-67.313v-23.057c0-37.755-30.716-68.471-68.472-68.471h-11.528v-24c0-4.418-3.582-8-8-8h-80c-4.418 0-8 3.582-8 8v24h-107.528c-37.756 0-68.472 30.716-68.472 68.472v23.057c0 32.859 23.27 60.377 54.194 66.963l-17.508 17.508h-12.686c-4.418 0-8 3.582-8 8v32c0 4.418 3.582 8 8 8h40.679c3.821 22.671 23.58 40 47.321 40s43.499-17.329 47.321-40h17.359c3.821 22.671 23.58 40 47.321 40s43.499-17.329 47.321-40h96.678 32.679c3.821 22.671 23.579 40 47.321 40s43.499-17.329 47.321-40h8.679c4.418 0 8-3.582 8-8v-104c0-.629-.074-1.255-.221-1.867zm-215.779-92.623c22.93 5.613 40 26.326 40 50.962v23.057c0 24.636-17.07 45.349-40 50.962zm-104-33.51h64v16h-64zm-120 32h112 80 16v128h-208zm-56 75.528v-23.057c0-24.636 17.07-45.349 40-50.962v124.98c-22.93-5.612-40-26.325-40-50.961zm96 156.472c-17.645 0-32-14.355-32-32s14.355-32 32-32 32 14.355 32 32-14.355 32-32 32zm112 0c-17.645 0-32-14.355-32-32s14.355-32 32-32 32 14.355 32 32-14.355 32-32 32zm136-40h-88.679c-3.821-22.671-23.58-40-47.321-40s-43.499 17.329-47.321 40h-17.359c-3.821-22.671-23.58-40-47.321-40s-43.499 17.329-47.321 40h-32.678v-16h8c2.122 0 4.157-.843 5.657-2.343l29.657-29.657h204.686v24c0 4.418 3.582 8 8 8h72zm131.938-112h-45.728c-7.835 0-14.21-6.375-14.21-14.21v-3.58c0-7.835 6.375-14.21 14.21-14.21h38.057zm-43.938 152c-17.645 0-32-14.355-32-32s14.355-32 32-32 32 14.355 32 32-14.355 32-32 32zm48-40h-.679c-3.821-22.671-23.579-40-47.321-40s-43.499 17.329-47.321 40h-24.679v-24-137.26c0-8.128 6.612-14.74 14.74-14.74h76.779c4.379 0 8.34 2.291 10.521 6.03l2.39 9.97h-34.22c-16.658 0-30.21 13.552-30.21 30.21v3.58c0 16.658 13.552 30.21 30.21 30.21h49.563l.227.947z" fill="url(#SVGID_1_)" data-original="url(#SVGID_1_)"></path></g></svg>