<svg xmlns="http://www.w3.org/2000/svg" version="1.1" xmlns:xlink="http://www.w3.org/1999/xlink" xmlns:svgjs="http://svgjs.com/svgjs" width="512" height="512" x="0" y="0" viewBox="0 0 512 512" style="enable-background:new 0 0 512 512" xml:space="preserve" class=""><g><linearGradient id="SVGID_1_" gradientUnits="userSpaceOnUse" x1="37.033" x2="414.776" y1="375.96" y2="-1.784"><stop offset="0" stop-color="#fffcff" stop-opacity="0"></stop><stop offset="1" stop-color="#ffdaec"></stop></linearGradient><g><g><path d="m490.906 78.806c-86.443-129.598-232.055 7.404-367.563-62.063-59.236-30.367-122.187 25.642-123.321 87.439-1.753 95.539 102.986 142.486 124.244 225.371 9.873 38.495-14.822 78.93-4.716 116.225 15.825 58.402 102.604 73.632 151.388 41.399 35.129-23.211 53.273-64.449 67.256-104.162 13.983-39.714 25.61-82.896 56.053-111.981 60.173-57.491 161.989-94.284 96.659-192.228z" fill="url(#SVGID_1_)" data-original="url(#SVGID_1_)"></path></g><g><g><path d="m453.633 109.72h-395.266c-11.046 0-20 8.954-20 20v20.626h-10.467c-2.761 0-5 2.239-5 5v48.662c0 2.761 2.239 5 5 5h10.467v23.323h-10.467c-2.761 0-5 2.239-5 5v48.662c0 2.761 2.239 5 5 5h10.467v121.29c0 11.046 8.954 20 20 20h395.266c11.046 0 20-8.954 20-20v-282.563c0-11.046-8.954-20-20-20z" fill="#2626bb" opacity=".1" data-original="#2626bb" class=""></path><g><path d="m473.63 104.72v282.56c0 11.05-8.95 20-20 20h-205.265l-12.079-5h-137.407l-11.823 5h-28.686c-11.05 0-20-8.95-20-20v-282.56c0-11.05 8.95-20 20-20h395.26c11.05 0 20 8.95 20 20z" fill="#8298fd" data-original="#8298fd" class=""></path><path d="m140.07 183.33-11.57 22c-.86 1.65-2.57 2.68-4.42 2.68h-85.71v-58.67h85.71c1.85 0 3.56 1.03 4.42 2.68l11.57 22c1.53 2.92 1.53 6.39 0 9.31z" fill="#6582fd" data-original="#6582fd"></path><path d="m140.07 265.31-11.57 22.01c-.86 1.64-2.57 2.67-4.42 2.67h-85.71v-58.66h85.71c1.85 0 3.56 1.03 4.42 2.67l11.57 22.01c1.53 2.91 1.53 6.39 0 9.3z" fill="#6582fd" data-original="#6582fd"></path><path d="m248.365 407.281h-161.309l17.196-32.961c1.723-3.303 5.14-5.375 8.866-5.375h109.185c3.726 0 7.143 2.071 8.866 5.375z" fill="#4369fc" data-original="#4369fc"></path><path d="m448.63 119.72v104.541l-5 15.349 5 12.191v22.359l-5 14.339 5 13.201v30.28c0 5.52-4.47 10-10 10h-109.434l-15.41-5-16.792 5h-37.535l-16.12-5-18.27 5h-15.45l-16.69-5-17.7 5h-101.859c-5.53 0-10-4.48-10-10v-44.72l5-24.311-5-18.779v-124.45c0-5.52 4.47-10 10-10h43.569l57.53 5h99.74l57.54-5h106.881c5.53 0 10 4.48 10 10z" fill="#01eba4" data-original="#01eba4" class=""></path><path d="m140.07 183.33-11.57 22c-.86 1.65-2.57 2.68-4.42 2.68h-60.71v-58.67h60.71c1.85 0 3.56 1.03 4.42 2.68l11.57 22c1.53 2.92 1.53 6.39 0 9.31z" fill="#00d78f" data-original="#00d78f"></path><ellipse cx="403.909" cy="206.19" fill="#00d78f" rx="36.62" ry="11.669" data-original="#00d78f"></ellipse><g fill="#dbfced"><path d="m330.996 224.261h117.634v27.54h-117.634z" fill="#dbfced" data-original="#dbfced" class=""></path><path d="m330.996 274.16h117.634v27.54h-117.634z" fill="#dbfced" data-original="#dbfced" class=""></path></g><path d="m438.63 109.72h-16.87c-8.06 10.54-21.86 24.92-42.47 39.02-65.37 44.74-155.73 59.46-220.03 63.93-39.79 2.77-72.35 13.62-95.89 31.5v43.09c8.64-13.24 21.65-23.73 38.83-31.3 16.31-7.19 36.76-11.81 59.15-13.36 70.238-4.886 124.429-17.753 166.041-33.667l-30.397 133.047h32.202l34.023-148.913c48.75-24.887 73.846-52.839 85.411-69.317v-4.03c0-5.52-4.47-10-10-10z" fill="#dbfced" data-original="#dbfced" class=""></path><path d="m140.07 265.31-11.57 22.01c-.86 1.64-2.57 2.67-4.42 2.67h-60.71v-58.66h60.71c1.85 0 3.56 1.03 4.42 2.67l11.57 22.01c1.53 2.91 1.53 6.39 0 9.3z" fill="#00d78f" data-original="#00d78f"></path><path d="m102.2 255.96c9.593-4.229 20.625-7.56 32.635-9.909l-6.335-12.051c-.86-1.64-2.57-2.67-4.42-2.67h-39.819c-7.583 3.766-14.572 8.041-20.891 12.84v43.09c8.64-13.24 21.65-23.73 38.83-31.3z" fill="#02ffb2" data-original="#02ffb2"></path><g><g><path d="m182.899 128.879h79.732l11.578-19.159h-99.74z" fill="#fd2c8e" data-original="#fd2c8e" class=""></path></g><path d="m218.248 163.46c0 52.96-8.63 178.52-8.63 178.52h-34.39s16.34-123.42 16.34-175.49c0-23.44-15.19-56.77-74.63-56.77h57.53c34.081 9.65 43.78 34.85 43.78 53.74z" fill="#ff5ba7" data-original="#ff5ba7" class=""></path><path d="m257.118 166.49c0 52.07 2.34 175.49 2.34 175.49h-34.39s5.38-125.56 5.38-178.52c0-18.89 9.69-44.08 43.76-53.74h57.54c-59.44 0-74.63 33.33-74.63 56.77z" fill="#ff7eb7" data-original="#ff7eb7" class=""></path></g><g><circle cx="243.338" cy="287.385" fill="#dbfced" r="45.354" data-original="#dbfced" class=""></circle><path d="m240.376 262.49-18.15 39.619c-1.123 2.452 1.048 5.13 3.68 4.536l17.433-3.93 17.433 3.93c2.631.593 4.803-2.084 3.68-4.536l-18.15-39.619c-1.162-2.536-4.765-2.536-5.926 0z" fill="#8298fd" data-original="#8298fd" class=""></path><path d="m260.769 306.645-17.429-3.93v-42.125c1.186 0 2.379.632 2.959 1.903l18.152 39.616c1.122 2.45-1.049 5.129-3.682 4.536z" fill="#6582fd" data-original="#6582fd"></path></g><path d="m148.452 324.484h-61.396c-2.761 0-5-2.239-5-5v-21.13c0-2.761 2.239-5 5-5h61.396c2.761 0 5 2.239 5 5v21.13c0 2.761-2.238 5-5 5z" fill="#8298fd" data-original="#8298fd" class=""></path><g><g><path d="m453.902 113.46c0 27.863-36.202 73.692-46.993 86.733-1.557 1.882-4.443 1.882-6.001 0-10.791-13.042-46.993-58.87-46.993-86.733 0-27.611 22.383-49.994 49.993-49.994s49.994 22.383 49.994 49.994z" fill="#ff5ba7" data-original="#ff5ba7" class=""></path><circle cx="403.909" cy="113.46" fill="#ffffff" r="28.519" data-original="#ffffff" class=""></circle></g></g><path d="m117.171 314.92h-13.292c-2.761 0-5-2.239-5-5s2.239-5 5-5h13.292c2.761 0 5 2.239 5 5s-2.239 5-5 5z" fill="#ffffff" data-original="#ffffff" class=""></path><g><path d="m314.746 382.406h-33.056c-2.761 0-5-2.239-5-5v-9.794c0-2.761 2.239-5 5-5h33.056c2.761 0 5 2.239 5 5v9.794c0 2.761-2.238 5-5 5z" fill="#b6c4ff" data-original="#b6c4ff"></path><path d="m357.802 382.406h-33.056c-2.761 0-5-2.239-5-5v-9.794c0-2.761 2.239-5 5-5h33.056c2.761 0 5 2.239 5 5v9.794c0 2.761-2.238 5-5 5z" fill="#d1ddff" data-original="#d1ddff"></path><path d="m400.859 382.406h-33.056c-2.761 0-5-2.239-5-5v-9.794c0-2.761 2.239-5 5-5h33.056c2.761 0 5 2.239 5 5v9.794c0 2.761-2.239 5-5 5z" fill="#b6c4ff" data-original="#b6c4ff"></path><path d="m443.915 382.406h-33.056c-2.761 0-5-2.239-5-5v-9.794c0-2.761 2.239-5 5-5h33.056c2.761 0 5 2.239 5 5v9.794c0 2.761-2.239 5-5 5z" fill="#ff5ba7" data-original="#ff5ba7" class=""></path></g></g><g><g><g><path d="m124.075 184.006h-96.175c-2.761 0-5-2.239-5-5v-48.662c0-2.761 2.239-5 5-5h96.176c1.858 0 3.562 1.03 4.426 2.674l11.564 22.005c1.531 2.912 1.531 6.391 0 9.304l-11.564 22.005c-.865 1.645-2.569 2.674-4.427 2.674z" fill="#ffffff" data-original="#ffffff" class=""></path><g><circle cx="46.487" cy="145.274" fill="#ff7eb7" r="5" data-original="#ff7eb7" class=""></circle></g></g></g><g><g><g><g><g><path d="m65.779 150.274h17.291c2.761 0 5-2.239 5-5s-2.239-5-5-5h-17.291c-2.761 0-5 2.239-5 5s2.239 5 5 5z" fill="#ff7eb7" data-original="#ff7eb7" class=""></path></g></g><g><path d="m105.07 169.077h-58.583c-2.761 0-5-2.239-5-5s2.239-5 5-5h58.583c2.761 0 5 2.239 5 5s-2.238 5-5 5z" fill="#8298fd" data-original="#8298fd" class=""></path></g></g></g></g></g><g><g><g><path d="m124.075 265.991h-96.175c-2.761 0-5-2.239-5-5v-48.662c0-2.761 2.239-5 5-5h96.176c1.858 0 3.562 1.03 4.426 2.674l11.564 22.005c1.531 2.912 1.531 6.391 0 9.304l-11.564 22.005c-.865 1.644-2.569 2.674-4.427 2.674z" fill="#ffffff" data-original="#ffffff" class=""></path><g><circle cx="46.487" cy="227.259" fill="#01eba4" r="5" data-original="#01eba4" class=""></circle></g><g fill="#2626bb"><path d="m453.633 79.719h-6.345c-10.072-12.92-25.766-21.252-43.379-21.252-30.324 0-54.994 24.67-54.994 54.993 0 28.647 33.666 72.428 48.141 89.921 1.696 2.049 4.193 3.224 6.854 3.224 2.659 0 5.156-1.175 6.853-3.224 14.475-17.493 48.141-61.273 48.141-89.921 0-8.497-1.939-16.55-5.395-23.741h.125c8.271 0 15 6.729 15 15v282.562c0 8.271-6.729 15-15 15h-395.267c-8.271 0-15-6.729-15-15v-92.948c0-2.761-2.238-5-5-5s-5 2.239-5 5v92.948c0 13.785 11.215 25 25 25h395.266c13.785 0 25-11.215 25-25v-282.562c0-13.785-11.215-25-25-25zm-49.724 116.253c-21.914-26.671-44.994-62.032-44.994-82.513 0-24.809 20.185-44.993 44.994-44.993s44.993 20.184 44.993 44.993c0 20.481-23.08 55.842-44.993 82.513z" fill="#2626bb" data-original="#2626bb" class=""></path><path d="m132.927 265.643 11.564-22.005c2.296-4.37 2.296-9.586 0-13.956l-11.564-22.006c-1.734-3.298-5.126-5.347-8.852-5.347h-80.705v-13.323h80.705c3.726 0 7.117-2.049 8.852-5.348l11.564-22.006c2.296-4.369 2.296-9.585 0-13.956l-11.564-22.005c-1.733-3.299-5.125-5.348-8.852-5.348h-80.705v-15.623c0-8.271 6.729-15 15-15h277c2.762 0 5-2.239 5-5s-2.238-5-5-5h-277c-13.785 0-25 11.215-25 25v15.624h-5.471c-5.514 0-10 4.486-10 10v48.662c0 5.514 4.486 10 10 10h5.471v13.323h-5.471c-5.514 0-10 4.486-10 10v48.662c0 5.514 4.486 10 10 10h96.176c3.727 0 7.118-2.049 8.852-5.348zm-105.028-135.299h96.176l11.563 22.004c.766 1.457.766 3.196.001 4.652l-11.564 22.005h-96.176zm0 81.985h96.176l11.564 22.005c.765 1.457.765 3.196 0 4.652l-11.563 22.005h-96.177z" fill="#2626bb" data-original="#2626bb" class=""></path></g></g></g><g><g><g><g><g><path d="m65.779 232.259h17.291c2.761 0 5-2.239 5-5s-2.239-5-5-5h-17.291c-2.761 0-5 2.239-5 5s2.239 5 5 5z" fill="#01eba4" data-original="#01eba4" class=""></path></g></g><g><path d="m105.07 251.062h-58.583c-2.761 0-5-2.239-5-5s2.239-5 5-5h58.583c2.761 0 5 2.239 5 5s-2.238 5-5 5z" fill="#8298fd" data-original="#8298fd" class=""></path></g></g></g></g></g><g><g><circle cx="426.617" cy="321.29" fill="#ffffff" r="5" data-original="#ffffff" class=""></circle></g><g><circle cx="410.909" cy="321.29" fill="#ffffff" r="5" data-original="#ffffff" class=""></circle></g><g><circle cx="395.201" cy="321.29" fill="#ffffff" r="5" data-original="#ffffff" class=""></circle></g></g></g><g><path d="m346.274 51.504c-1.279 0-2.56-.488-3.535-1.464l-5.465-5.464-5.465 5.464c-1.951 1.952-5.119 1.952-7.07 0-1.953-1.953-1.953-5.119 0-7.071l9-9c1.951-1.952 5.119-1.952 7.07 0l9 9c1.953 1.953 1.953 5.119 0 7.071-.975.976-2.255 1.464-3.535 1.464z" fill="#ff5ba7" data-original="#ff5ba7" class=""></path></g><g><path d="m457.63 463.244c-1.279 0-2.56-.488-3.535-1.464l-5.465-5.464-5.465 5.464c-1.951 1.952-5.119 1.952-7.07 0-1.953-1.953-1.953-5.119 0-7.071l9-9c1.951-1.952 5.119-1.952 7.07 0l9 9c1.953 1.953 1.953 5.119 0 7.071-.976.976-2.256 1.464-3.535 1.464z" fill="#6582fd" data-original="#6582fd"></path></g><g><path d="m409.201 35.571c-1.279 0-2.56-.488-3.535-1.464l-5.465-5.464-5.465 5.464c-1.951 1.952-5.119 1.952-7.07 0-1.953-1.953-1.953-5.119 0-7.071l9-9c1.951-1.952 5.119-1.952 7.07 0l9 9c1.953 1.953 1.953 5.119 0 7.071-.975.976-2.256 1.464-3.535 1.464z" fill="#00d78f" data-original="#00d78f"></path></g><g><g><g><path d="m362.984 457.415c-.851 0-1.712-.217-2.501-.674l-.099-.057c-2.39-1.384-3.205-4.443-1.82-6.833 1.383-2.39 4.441-3.205 6.832-1.821l.099.057c2.39 1.384 3.205 4.443 1.82 6.833-.926 1.601-2.605 2.495-4.331 2.495z" fill="#00d78f" data-original="#00d78f"></path></g><g><path d="m387.886 471.792c-.845 0-1.7-.214-2.485-.665l-.099-.057c-2.395-1.375-3.221-4.431-1.846-6.826 1.376-2.396 4.432-3.221 6.826-1.846l.099.057c2.395 1.375 3.221 4.431 1.846 6.826-.925 1.609-2.609 2.511-4.341 2.511z" fill="#00d78f" data-original="#00d78f"></path></g></g><g><g><path d="m387.797 457.415c-1.726 0-3.404-.895-4.331-2.495-1.385-2.389-.569-5.448 1.82-6.833l.099-.057c2.391-1.383 5.449-.568 6.832 1.821 1.385 2.389.569 5.448-1.82 6.833l-.099.057c-.789.457-1.651.674-2.501.674z" fill="#00d78f" data-original="#00d78f"></path></g><g><path d="m362.896 471.792c-1.732 0-3.416-.901-4.341-2.511-1.375-2.395-.549-5.451 1.846-6.826l.099-.057c2.397-1.376 5.451-.549 6.826 1.846s.549 5.451-1.846 6.826l-.099.057c-.785.45-1.642.665-2.485.665z" fill="#00d78f" data-original="#00d78f"></path></g></g><g><g><path d="m387.797 457.415c-1.726 0-3.404-.895-4.331-2.495-1.385-2.389-.569-5.448 1.82-6.833l.099-.057c2.391-1.383 5.449-.568 6.832 1.821 1.385 2.389.569 5.448-1.82 6.833l-.099.057c-.789.457-1.651.674-2.501.674z" fill="#00d78f" data-original="#00d78f"></path></g><g><path d="m362.896 471.792c-1.732 0-3.416-.901-4.341-2.511-1.375-2.395-.549-5.451 1.846-6.826l.099-.057c2.397-1.376 5.451-.549 6.826 1.846s.549 5.451-1.846 6.826l-.099.057c-.785.45-1.642.665-2.485.665z" fill="#00d78f" data-original="#00d78f"></path></g></g><g><g><path d="m375.391 450.254c-2.762 0-5-2.239-5-5v-.114c0-2.761 2.238-5 5-5s5 2.239 5 5v.114c0 2.761-2.239 5-5 5z" fill="#00d78f" data-original="#00d78f"></path></g><g><path d="m375.391 479.007c-2.762 0-5-2.239-5-5v-.114c0-2.761 2.238-5 5-5s5 2.239 5 5v.114c0 2.762-2.239 5-5 5z" fill="#00d78f" data-original="#00d78f"></path></g></g></g><g><g><g><path d="m69.65 41.062c-.851 0-1.712-.217-2.501-.674l-.099-.057c-2.39-1.384-3.205-4.443-1.82-6.833 1.384-2.389 4.442-3.204 6.832-1.821l.099.057c2.39 1.384 3.205 4.443 1.82 6.833-.926 1.601-2.605 2.495-4.331 2.495z" fill="#6582fd" data-original="#6582fd"></path></g><g><path d="m94.552 55.439c-.851 0-1.712-.217-2.501-.674l-.099-.057c-2.39-1.384-3.205-4.443-1.82-6.833 1.384-2.389 4.442-3.205 6.832-1.821l.099.057c2.39 1.384 3.205 4.443 1.82 6.833-.927 1.601-2.606 2.495-4.331 2.495z" fill="#6582fd" data-original="#6582fd"></path></g></g><g><g><path d="m94.463 41.062c-1.726 0-3.404-.895-4.331-2.495-1.385-2.389-.569-5.448 1.82-6.833l.099-.057c2.391-1.383 5.449-.568 6.832 1.821 1.385 2.389.569 5.448-1.82 6.833l-.099.057c-.789.457-1.651.674-2.501.674z" fill="#6582fd" data-original="#6582fd"></path></g><g><path d="m69.562 55.439c-1.726 0-3.404-.895-4.331-2.495-1.385-2.389-.569-5.448 1.82-6.833l.099-.057c2.39-1.384 5.449-.568 6.832 1.821 1.385 2.389.569 5.448-1.82 6.833l-.099.057c-.79.457-1.651.674-2.501.674z" fill="#6582fd" data-original="#6582fd"></path></g></g><g><g><path d="m94.463 41.062c-1.726 0-3.404-.895-4.331-2.495-1.385-2.389-.569-5.448 1.82-6.833l.099-.057c2.391-1.383 5.449-.568 6.832 1.821 1.385 2.389.569 5.448-1.82 6.833l-.099.057c-.789.457-1.651.674-2.501.674z" fill="#6582fd" data-original="#6582fd"></path></g><g><path d="m69.562 55.439c-1.726 0-3.404-.895-4.331-2.495-1.385-2.389-.569-5.448 1.82-6.833l.099-.057c2.39-1.384 5.449-.568 6.832 1.821 1.385 2.389.569 5.448-1.82 6.833l-.099.057c-.79.457-1.651.674-2.501.674z" fill="#6582fd" data-original="#6582fd"></path></g></g><g><g><path d="m82.057 33.901c-2.762 0-5-2.239-5-5v-.114c0-2.761 2.238-5 5-5s5 2.239 5 5v.114c0 2.762-2.239 5-5 5z" fill="#6582fd" data-original="#6582fd"></path></g><g><path d="m82.057 62.655c-2.762 0-5-2.239-5-5v-.114c0-2.761 2.238-5 5-5s5 2.239 5 5v.114c0 2.762-2.239 5-5 5z" fill="#6582fd" data-original="#6582fd"></path></g></g></g></g></g></g></svg>