<svg xmlns="http://www.w3.org/2000/svg" version="1.1" xmlns:xlink="http://www.w3.org/1999/xlink" xmlns:svgjs="http://svgjs.com/svgjs" width="512" height="512" x="0" y="0" viewBox="0 0 512 512" style="enable-background:new 0 0 512 512" xml:space="preserve" class=""><g><linearGradient id="SVGID_1_" gradientUnits="userSpaceOnUse" x1="96.635" x2="396.065" y1="388.2" y2="88.77"><stop stop-opacity="1" stop-color="#fff1f1" offset="0.0485"></stop><stop stop-opacity="1" stop-color="#ffc2a4" offset="0.9993"></stop></linearGradient><g><g><path d="m503.624 213.468c-25.985-123.946-284.399-22.012-234.334-116.839 19.967-37.819 15.065-82.167-29.349-93.408-176.212-44.599-360.748 389.694-111.005 333.173 52.977-11.99 84.323-59.709 99.881-29.652 30.937 59.768-52.634 128.44-19.683 182.571 64.015 105.165 313.682-184.303 294.49-275.845z" fill="url(#SVGID_1_)" data-original="url(#SVGID_1_)"></path></g><g><g><g fill="#2626bb" opacity=".1"><path d="m455.54 322.71c0-8.64-5.54-16.3-13.75-19l-11.656-3.839v-5.63c0-11.046-8.954-20-20-20h-8.266v-41.96c0-3.313-2.686-6-6-6h-3.214v-17.391c0-28.253-8.618-54.53-23.364-76.342l2.529-1.707c3.545-2.393 4.372-7.278 1.795-10.691-27.806-36.827-71.205-58.587-117.614-58.587-46.41 0-89.809 21.76-117.614 58.587-2.577 3.414-1.75 8.298 1.795 10.691l2.529 1.707c-14.746 21.812-23.364 48.089-23.364 76.342v17.391h-3.214c-3.314 0-6 2.687-6 6v41.96h-8.266c-11.046 0-20 8.954-20 20v5.631l-11.661 3.837c-8.204 2.699-13.749 10.361-13.749 18.998v42.235c0 8.637 5.544 16.298 13.749 18.998l11.661 3.837v5.631c0 11.046 8.954 20 20 20h32.412c19.973 0 36.165-16.192 36.165-36.165v-66.837c0-14.622-8.683-27.208-21.17-32.908v-45.217c0-3.313-2.686-6-6-6h-2.579v-17.391c0-23.833 7.268-46 19.704-64.401l2.827 1.908c3.256 2.198 7.658 1.499 10.066-1.605 19.784-25.504 50.21-40.535 82.71-40.535 32.499 0 62.925 15.031 82.709 40.535 2.407 3.104 6.81 3.802 10.066 1.605l2.827-1.908c12.436 18.402 19.704 40.569 19.704 64.401v17.391h-2.579c-3.314 0-6 2.687-6 6v45.217c-12.487 5.699-21.17 18.286-21.17 32.908v66.837c0 19.973 16.192 36.165 36.165 36.165h32.412c10.299 0 18.773-7.787 19.872-17.794-2.117 36.757-32.584 65.915-69.872 65.915h-37.226v-6.976c0-12.152-9.851-22.003-22.003-22.003h-57.596c-12.152 0-22.003 9.851-22.003 22.003v9.617c0 12.152 9.851 22.003 22.003 22.003h122.235c49.706 0 90-40.294 90-90z" fill="#2626bb" data-original="#2626bb" class=""></path><circle cx="256" cy="248.633" r="65" fill="#2626bb" data-original="#2626bb" class=""></circle></g><g><g><g><g><g><g><g><path d="m140.694 209.741v-24.85c0-63.58 51.726-115.306 115.306-115.306s115.305 51.726 115.305 115.306v24.85h21.347v-24.85c0-75.351-61.302-136.654-136.653-136.654s-136.654 61.303-136.654 136.654v24.85z" fill="#4369fc" data-original="#4369fc" class=""></path></g></g><g><g><path d="m371.82 130.837-10.51 7.1c-18.01-40.24-58.44-68.35-105.31-68.35s-87.3 28.11-105.31 68.35l-10.51-7.1c-3.54-2.39-4.37-7.27-1.79-10.69 27.8-36.82 71.2-58.58 117.61-58.58s89.81 21.76 117.61 58.58c2.58 3.42 1.75 8.3-1.79 10.69z" fill="#2d58df" data-original="#2d58df"></path></g></g><g><g><path d="m348.775 122.398c-3.256 2.198-7.658 1.499-10.066-1.605-19.784-25.504-50.21-40.535-82.709-40.535-32.5 0-62.926 15.031-82.71 40.535-2.408 3.104-6.81 3.803-10.066 1.605l-23.043-15.556c-3.545-2.393-4.372-7.278-1.795-10.691 27.805-36.827 71.204-58.587 117.613-58.587s89.808 21.76 117.612 58.587c2.577 3.414 1.751 8.298-1.795 10.691z" fill="#8298fd" data-original="#8298fd" class=""></path></g></g></g></g></g></g></g><g fill="#ff7eb7"><path d="m143.273 263.168h-27.141c-3.314 0-6-2.686-6-6v-48.886c0-3.314 2.686-6 6-6h27.141c3.314 0 6 2.686 6 6v48.886c0 3.313-2.686 6-6 6z" fill="#ff7eb7" data-original="#ff7eb7" class=""></path><path d="m395.868 263.168h-27.141c-3.314 0-6-2.686-6-6v-48.886c0-3.314 2.686-6 6-6h27.141c3.314 0 6 2.686 6 6v48.886c0 3.313-2.687 6-6 6z" fill="#ff7eb7" data-original="#ff7eb7" class=""></path></g><g><g><path d="m98.98 369.409-28.775-9.468c-8.204-2.7-13.749-10.361-13.749-18.998v-42.235c0-8.637 5.544-16.298 13.749-18.998l28.775-9.468z" fill="#9eaffd" data-original="#9eaffd"></path><g><path d="m131.87 389.41h-30c-11.05 0-20-8.96-20-20v-99.17c0-11.04 8.95-20 20-20h30z" fill="#6582fd" data-original="#6582fd" class=""></path><path d="m134.278 389.409h-2.412c-11.046 0-20-8.954-20-20v-99.168c0-11.046 8.954-20 20-20h2.412c19.973 0 36.165 16.192 36.165 36.165v66.837c0 19.974-16.192 36.166-36.165 36.166z" fill="#4369fc" data-original="#4369fc" class=""></path></g></g><g><path d="m430.13 270.24v99.17c0 11.04-8.95 20-20 20h-30v-139.17h30c11.05 0 20 8.96 20 20z" fill="#6582fd" data-original="#6582fd" class=""></path><path d="m377.722 389.409h2.412c11.046 0 20-8.954 20-20v-99.168c0-11.046-8.954-20-20-20h-2.412c-19.973 0-36.165 16.192-36.165 36.165v66.837c0 19.974 16.192 36.166 36.165 36.166z" fill="#4369fc" data-original="#4369fc" class=""></path><g fill="#2626bb" opacity=".1"><path d="m257.064 348.066c2.761 0 5 2.238 5 5s-2.239 5-5 5h-24.575c-2.761 0-5-2.238-5-5s2.239-5 5-5z" fill="#2626bb" data-original="#2626bb" class=""></path><path d="m209.118 365.526h49.235c2.761 0 5 2.238 5 5s-2.239 5-5 5h-49.235c-2.761 0-5-2.238-5-5s2.238-5 5-5z" fill="#2626bb" data-original="#2626bb" class=""></path><path d="m268.558 370.073c.926 1.604 2.606 2.5 4.334 2.5.849 0 1.708-.217 2.496-.671l1.774-1.025c1.642 1.473 3.58 2.619 5.722 3.322v2.031c0 2.762 2.239 5 5 5s5-2.238 5-5v-2.031c2.143-.703 4.08-1.848 5.722-3.322l1.774 1.025c.787.454 1.647.671 2.496.671 1.728 0 3.408-.896 4.334-2.5 1.381-2.392.563-5.449-1.829-6.831l-1.754-1.013c.225-1.071.347-2.179.347-3.316s-.122-2.245-.347-3.316l1.753-1.012c2.392-1.381 3.211-4.438 1.83-6.83-1.38-2.391-4.438-3.213-6.83-1.83l-1.775 1.025c-1.642-1.473-3.58-2.619-5.722-3.322v-2.032c0-2.762-2.239-5-5-5s-5 2.238-5 5v2.032c-2.143.703-4.08 1.848-5.722 3.322l-1.775-1.025c-2.393-1.382-5.451-.562-6.83 1.83-1.381 2.392-.562 5.449 1.83 6.83l1.753 1.012c-.225 1.071-.347 2.179-.347 3.316s.122 2.245.347 3.316l-1.754 1.013c-2.39 1.382-3.209 4.439-1.827 6.831zm13.235-11.16c0-3.358 2.732-6.091 6.091-6.091s6.091 2.732 6.091 6.091-2.732 6.092-6.091 6.092-6.091-2.733-6.091-6.092z" fill="#2626bb" data-original="#2626bb" class=""></path></g></g></g><path d="m455.54 298.71v18.83l-12.705 5-12.705-5v-41.67l11.66 3.84c8.21 2.7 13.75 10.36 13.75 19z" fill="#ff7eb7" data-original="#ff7eb7" class=""></path><path d="m430.13 360.78 12.708-5 12.703 5v11.39c0 49.71-40.29 90-90 90h-97.6v-24.64h92.19c38.66 0 70-31.34 70-70v-6.75z" fill="#ff7eb7" data-original="#ff7eb7" class=""></path><path d="m430.133 317.537h25.409v43.242h-25.409z" fill="#ffc3de" data-original="#ffc3de" class=""></path><path d="m322.91 431.64v8.53c0 12.15-9.85 22-22.01 22h-57.59c-12.15 0-22.01-9.85-22.01-22v-9.62c0-12.15 9.86-22 22.01-22h2.5z" fill="#9eaffd" data-original="#9eaffd"></path><path d="m322.91 430.55v1.09c0 2.77-2.24 5-5 5h-60.24c-6.55 0-11.86-5.3-11.86-11.85v-16.24h17.3l5 5 5-5h8.78l5 5 5-5h9.01c12.16 0 22.01 9.85 22.01 22z" fill="#6582fd" data-original="#6582fd" class=""></path><g><g><path d="m273.11 408.55v10.12c0 2.76-2.24 5-5 5-2.77 0-5-2.24-5-5v-10.12z" fill="#4369fc" data-original="#4369fc" class=""></path></g><g><path d="m291.89 408.55v10.12c0 2.76-2.24 5-5 5s-5-2.24-5-5v-10.12z" fill="#4369fc" data-original="#4369fc" class=""></path></g></g><g><g><circle cx="256" cy="224.633" fill="#01eba4" r="65" data-original="#01eba4" class=""></circle><g fill="#2626bb"><path d="m232.489 324.066c-2.761 0-5 2.238-5 5s2.239 5 5 5h24.576c2.762 0 5-2.238 5-5s-2.238-5-5-5z" fill="#2626bb" data-original="#2626bb" class=""></path><path d="m307.212 323.755c-1.38-2.392-4.438-3.214-6.83-1.83l-1.774 1.024c-1.642-1.474-3.58-2.62-5.723-3.322v-2.031c0-2.762-2.238-5-5-5s-5 2.238-5 5v2.031c-2.143.703-4.081 1.849-5.724 3.323l-1.775-1.024c-2.396-1.384-5.45-.561-6.83 1.83-1.381 2.392-.562 5.45 1.83 6.83l1.754 1.012c-.225 1.071-.347 2.179-.347 3.316s.122 2.245.347 3.316l-1.754 1.012c-2.392 1.38-3.211 4.438-1.83 6.83.926 1.604 2.606 2.501 4.335 2.501.848 0 1.708-.216 2.495-.671l1.775-1.024c1.642 1.474 3.58 2.62 5.724 3.323v2.031c0 2.762 2.238 5 5 5s5-2.238 5-5v-2.031c2.143-.703 4.08-1.849 5.723-3.322l1.774 1.024c.788.455 1.647.671 2.495.671 1.729 0 3.409-.897 4.335-2.501 1.381-2.392.562-5.45-1.83-6.83l-1.754-1.012c.225-1.071.347-2.179.347-3.316s-.122-2.245-.347-3.316l1.754-1.012c2.391-1.382 3.211-4.441 1.83-6.832zm-19.327 17.25c-3.359 0-6.092-2.732-6.092-6.092s2.732-6.092 6.092-6.092c3.358 0 6.091 2.732 6.091 6.092s-2.733 6.092-6.091 6.092z" fill="#2626bb" data-original="#2626bb" class=""></path><path d="m263.353 346.526c0-2.762-2.238-5-5-5h-49.235c-2.761 0-5 2.238-5 5s2.239 5 5 5h49.235c2.761 0 5-2.238 5-5z" fill="#2626bb" data-original="#2626bb" class=""></path><path d="m460.542 348.828c0-2.762-2.239-5-5-5-2.762 0-5 2.239-5 5l.001 23.346c0 46.869-38.131 85-85 85h-43.681c3.31-4.072 5.456-9.123 5.936-14.645h32.336c39.783 0 72.414-31.139 74.839-70.322.103-.919.157-89.427.157-89.427l5.098 1.679c6.168 2.028 10.313 7.755 10.313 14.25l.001 21.882c0 2.762 2.239 5 5 5 2.762 0 5-2.239 5-5l-.001-21.882c0-10.824-6.907-20.368-17.187-23.749l-8.22-2.707v-2.013c0-13.785-11.215-25-25-25h-3.264v-36.96c0-5.458-4-9.988-9.22-10.843v-12.547c0-26.711-7.45-52.56-21.58-75.076 2.028-1.871 3.417-4.379 3.875-7.126.56-3.357-.294-6.838-2.342-9.55-14.125-18.71-32.656-34.12-53.588-44.565-20.988-10.474-44.508-16.01-68.015-16.01-23.508 0-47.028 5.536-68.016 16.01-20.932 10.445-39.462 25.855-53.587 44.564-2.048 2.712-2.902 6.193-2.343 9.551.458 2.747 1.847 5.255 3.875 7.126-14.129 22.516-21.579 48.366-21.579 75.076v12.548c-5.22.855-9.22 5.384-9.22 10.843v36.961h-3.264c-13.785 0-25 11.215-25 25v2.013l-8.218 2.706c-10.281 3.382-17.188 12.926-17.188 23.75v42.229c0 10.825 6.907 20.37 17.186 23.749l8.221 2.708v2.013c0 13.785 11.215 25 25 25h32.412c22.698 0 41.165-18.467 41.165-41.165v-66.838c0-15.446-8.556-28.925-21.173-35.967v-42.16c0-5.233-3.677-9.616-8.58-10.723v-12.667c0-20.421 5.598-40.194 16.214-57.498 1.738.854 3.613 1.275 5.477 1.275 3.735 0 7.423-1.667 9.86-4.81 16.126-20.788 39.346-34.174 65.381-37.691 2.736-.37 4.655-2.888 4.286-5.624-.37-2.737-2.891-4.656-5.625-4.286-28.65 3.871-54.2 18.6-71.943 41.473-.79 1.018-2.249 1.247-3.318.524l-23.042-15.555c-.77-.521-.996-1.26-1.061-1.654-.065-.39-.092-1.151.459-1.881 26.756-35.441 69.232-56.6 113.621-56.6s86.865 21.159 113.623 56.601c.55.729.523 1.491.459 1.881-.066.395-.291 1.134-1.062 1.653l-23.043 15.557c-1.069.723-2.527.493-3.318-.525-17.709-22.83-43.206-37.552-71.795-41.453-2.741-.372-5.257 1.543-5.63 4.278s1.542 5.257 4.278 5.63c25.979 3.545 49.15 16.925 65.246 37.675 3.653 4.709 10.113 6.089 15.333 3.526 10.619 17.306 16.218 37.081 16.218 57.505v12.668c-4.903 1.107-8.579 5.49-8.579 10.723v42.159c-12.618 7.041-21.174 20.521-21.174 35.967v66.838c0 22.698 18.467 41.165 41.165 41.165h32.412c3.591 0 7.005-.767 10.094-2.136-9.754 23.601-33.011 40.257-60.094 40.257h-32.227v-1.976c0-14.89-12.113-27.003-27.003-27.003h-57.597c-14.89 0-27.003 12.113-27.003 27.003v9.617c0 14.89 12.113 27.003 27.003 27.003h122.235c52.383 0 95-42.617 95-95zm-388.771 6.361c-6.167-2.027-10.312-7.754-10.312-14.25v-42.229c0-6.495 4.144-12.222 10.314-14.251l5.092-1.677v74.086zm93.672-68.783v66.838c0 17.185-13.98 31.165-31.165 31.165h-32.412c-8.271 0-15-6.729-15-15v-99.168c0-8.271 6.729-15 15-15h32.412c17.184 0 31.165 13.981 31.165 31.165zm-31.165-41.165h-19.148v-36.961c0-.552.449-1 1-1h27.14c.551 0 1 .448 1 1v38.194c-3.201-.801-6.547-1.233-9.992-1.233zm1.412-60.351v12.391h-11.34v-12.391c0-24.656 6.826-48.523 19.784-69.347l9.408 6.351c-11.69 18.942-17.852 40.613-17.852 62.996zm222.768-62.996 9.407-6.351c12.958 20.823 19.784 44.691 19.784 69.347v12.391h-11.339v-12.391c0-22.383-6.162-44.054-17.852-62.996zm9.272 86.386c0-.552.448-1 1-1h27.14c.552 0 1 .448 1 1v36.961h-19.148c-3.445 0-6.791.431-9.991 1.232v-38.193zm42.404 176.129h-32.412c-17.185 0-31.165-13.98-31.165-31.165v-66.838c0-17.185 13.98-31.165 31.165-31.165h32.412c8.271 0 15 6.729 15 15v97.288c0 1.2-.038 2.391-.103 3.576-.846 7.475-7.2 13.304-14.897 13.304zm-183.829 55.762v-9.617c0-9.375 7.627-17.003 17.003-17.003h57.597c9.375 0 17.003 7.628 17.003 17.003v9.617c0 9.375-7.628 17.003-17.003 17.003h-57.597c-9.376 0-17.003-7.628-17.003-17.003z" fill="#2626bb" data-original="#2626bb" class=""></path><path d="m256 154.633c-38.598 0-70 31.402-70 70s31.402 70 70 70 70-31.402 70-70-31.402-70-70-70zm0 130c-33.084 0-60-26.916-60-60s26.916-60 60-60 60 26.916 60 60-26.916 60-60 60z" fill="#2626bb" data-original="#2626bb" class=""></path></g><g><g><path d="m242.065 215.1c-2.654 2.018-6.497.918-7.7-2.191-1.227-3.172-1.753-6.607-1.506-10.067.779-10.979 9.601-20.167 20.52-21.372 6.596-.727 13.19 1.375 18.096 5.77 4.91 4.398 7.726 10.699 7.726 17.287 0 5.266-1.813 10.423-5.105 14.521-.024.03-.049.06-.074.089l-16.504 19.603c-.047.077-.089.196.001.379.091.188.188.188.28.189l.091.001c2.34.015 4.448 1.598 4.942 3.886.701 3.247-1.754 6.115-4.879 6.115h-.106c-3.139-.013-6.167-1.385-8.098-3.86-3.044-3.902-2.999-9.092-.136-12.836.047-.063.097-.124.147-.184l16.573-19.685c2.028-2.546 3.023-5.658 2.849-8.953-.169-3.205-1.538-6.281-3.802-8.555-2.901-2.915-6.809-4.279-10.903-3.826-6.195.684-11.2 5.904-11.643 12.141-.138 1.942.148 3.866.819 5.646.802 2.128.223 4.525-1.588 5.902z" fill="#ffffff" data-original="#ffffff" class=""></path></g><circle cx="254.079" cy="262.054" fill="#ffffff" r="6" data-original="#ffffff" class=""></circle></g></g></g><g fill="#9eaffd"><g><circle cx="149.767" cy="322.537" r="5" fill="#000000" data-original="#000000" class=""></circle><circle cx="149.767" cy="303.228" r="5" fill="#000000" data-original="#000000" class=""></circle><circle cx="149.767" cy="283.919" r="5" fill="#000000" data-original="#000000" class=""></circle></g><g><circle cx="362.233" cy="322.537" r="5" fill="#000000" data-original="#000000" class=""></circle><circle cx="362.233" cy="303.228" r="5" fill="#000000" data-original="#000000" class=""></circle><circle cx="362.233" cy="283.919" r="5" fill="#000000" data-original="#000000" class=""></circle></g></g></g><g><path d="m419.633 128.728c-2.762 0-5-2.238-5-5 0-3.032-2.468-5.5-5.5-5.5-2.762 0-5-2.238-5-5s2.238-5 5-5c3.032 0 5.5-2.468 5.5-5.5 0-2.762 2.238-5 5-5s5 2.238 5 5c0 3.032 2.468 5.5 5.5 5.5 2.762 0 5 2.238 5 5s-2.238 5-5 5c-3.032 0-5.5 2.468-5.5 5.5 0 2.761-2.238 5-5 5z" fill="#01eba4" data-original="#01eba4" class=""></path></g><g><path d="m111.866 461.362c-2.761 0-5-2.238-5-5 0-3.032-2.467-5.5-5.5-5.5-2.761 0-5-2.238-5-5s2.239-5 5-5c3.033 0 5.5-2.468 5.5-5.5 0-2.762 2.239-5 5-5s5 2.238 5 5c0 3.032 2.467 5.5 5.5 5.5 2.761 0 5 2.238 5 5s-2.239 5-5 5c-3.033 0-5.5 2.468-5.5 5.5 0 2.762-2.239 5-5 5z" fill="#01eba4" data-original="#01eba4" class=""></path></g><g><path d="m66.957 217.782c-2.761 0-5-2.238-5-5 0-3.032-2.467-5.5-5.5-5.5-2.761 0-5-2.238-5-5s2.239-5 5-5c3.033 0 5.5-2.468 5.5-5.5 0-2.762 2.239-5 5-5s5 2.238 5 5c0 3.032 2.467 5.5 5.5 5.5 2.761 0 5 2.238 5 5s-2.239 5-5 5c-3.033 0-5.5 2.468-5.5 5.5 0 2.762-2.239 5-5 5z" fill="#ff7eb7" data-original="#ff7eb7" class=""></path></g><g><path d="m392.653 77.067c-1.279 0-2.56-.488-3.535-1.465l-10.5-10.5c-1.953-1.952-1.953-5.118 0-7.07l10.5-10.5c1.951-1.953 5.119-1.953 7.07 0l10.5 10.5c1.953 1.952 1.953 5.118 0 7.07l-10.5 10.5c-.975.977-2.255 1.465-3.535 1.465zm-3.428-15.5 3.429 3.429 3.429-3.429-3.429-3.429z" fill="#ff7eb7" data-original="#ff7eb7" class=""></path></g><g><path d="m170.443 439.17c-1.28 0-2.559-.488-3.536-1.465l-10.5-10.5c-1.953-1.952-1.953-5.118 0-7.07l10.5-10.5c1.953-1.953 5.118-1.953 7.071 0l10.5 10.5c1.953 1.952 1.953 5.118 0 7.07l-10.5 10.5c-.976.977-2.255 1.465-3.535 1.465zm-3.429-15.5 3.429 3.429 3.429-3.429-3.429-3.429z" fill="#8298fd" data-original="#8298fd" class=""></path></g></g></g></g></svg>