<svg xmlns="http://www.w3.org/2000/svg" version="1.1" xmlns:xlink="http://www.w3.org/1999/xlink" xmlns:svgjs="http://svgjs.com/svgjs" width="512" height="512" x="0" y="0" viewBox="0 0 512 512" style="enable-background:new 0 0 512 512" xml:space="preserve" class=""><g><linearGradient id="SVGID_1_" gradientUnits="userSpaceOnUse" x1="45.274" x2="466.726" y1="256" y2="256"><stop offset=".0007233796" stop-color="#ffd6bb"></stop><stop offset=".9993" stop-color="#ffd9d9" stop-opacity="0"></stop></linearGradient><g><g><path d="m97.146 38.232c-135.328 119.538 38.831 235.409 22.243 366.028-7.375 58.072 16.054 113.588 92.705 107.244 93.413-7.732 59.504-97.209 79.066-156.778 33.66-102.501 240.73-78.56 154.895-236.448-54.778-100.758-255.766-162.321-348.909-80.046z" fill="url(#SVGID_1_)" data-original="url(#SVGID_1_)"></path></g><g><g><g><path d="m459.47 174.7c0-28.512-23.114-51.625-51.625-51.625-8.68 0-16.854 2.152-24.034 5.937.988-3.989 1.521-8.157 1.521-12.451 0-28.512-23.113-51.625-51.625-51.625s-51.625 23.113-51.625 51.625c0 19.153 10.438 35.858 25.929 44.769h-245.481c-5.52 0-10 4.48-10 10v260c0 5.52 4.48 10 10 10h38.444v16.737c0 2.761 2.239 5 5 5h15.34c2.761 0 5-2.239 5-5v-16.737h27.405v4.737c0 2.761 2.239 5 5 5h15.34c2.761 0 5-2.239 5-5v-4.737h161.49v16.737c0 2.761 2.238 5 5 5h15.34c2.761 0 5-2.239 5-5v-16.737h41.82c5.52 0 10-4.48 10-10v-205.958c23.792-4.605 41.761-25.536 41.761-50.672z" fill="#0000cc" opacity=".1" data-original="#0000cc" class=""></path><g><circle cx="333.707" cy="92.56" fill="#ff6c6c" r="51.625" data-original="#ff6c6c"></circle><path d="m349.114 110.018h-20.514c.656-1.569 1.001-3.268 1.001-5.019v-6.957h7.073c2.762 0 5-2.239 5-5s-2.238-5-5-5h-7.073v-7.003c0-3.274 2.663-5.938 5.937-5.938s5.938 2.664 5.938 5.938c0 2.761 2.238 5 5 5s5-2.239 5-5c0-8.788-7.149-15.938-15.938-15.938-8.787 0-15.937 7.149-15.937 15.938v7.003h-1.301c-2.762 0-5 2.239-5 5s2.238 5 5 5h1.302v6.957c0 .799-.312 1.551-.878 2.117-2.169 2.17-2.812 5.403-1.638 8.237 1.175 2.834 3.916 4.666 6.983 4.666h25.045c2.762 0 5-2.239 5-5s-2.238-5.001-5-5.001z" fill="#ffffff" data-original="#ffffff" class=""></path></g><path d="m417.71 147.33v260c0 5.52-4.48 10-10 10h-345.18c-5.52 0-10-4.48-10-10v-260c0-5.52 4.48-10 10-10h345.18c5.52 0 10 4.48 10 10z" fill="#ffab66" data-original="#ffab66"></path><g fill="#ff9d33"><path d="m190.96 139.01c0 28.51-23.12 51.62-51.63 51.62s-51.62-23.11-51.62-51.62c0-.56.01-1.12.03-1.68h103.19c.02.56.03 1.12.03 1.68z" fill="#ff9d33" data-original="#ff9d33"></path><path d="m417.71 147.329v78.05c-3.19.63-6.49.95-9.86.95-28.52 0-51.63-23.12-51.63-51.63 0-14.7 6.14-27.97 16.01-37.37h35.48c5.52 0 10 4.48 10 10z" fill="#ff9d33" data-original="#ff9d33"></path><path d="m387.709 409.159h-305.178c-2.761 0-5-2.239-5-5v-219.996c0-2.761 2.239-5 5-5h305.178c2.761 0 5 2.239 5 5v219.996c0 2.761-2.239 5-5 5z" fill="#ff9d33" data-original="#ff9d33"></path></g><path d="m392.71 167.33v220c0 2.76-2.24 5-5 5h-305.18c-2.76 0-5-2.24-5-5v-220c0-2.76 2.24-5 5-5h305.18c2.76 0 5 2.24 5 5z" fill="#ffffff" data-original="#ffffff" class=""></path><path d="m185.4 162.33c-8.52 16.79-25.95 28.3-46.07 28.3s-37.55-11.51-46.06-28.3z" fill="#ebebff" data-original="#ebebff"></path><path d="m392.71 167.329v56.74c-21.13-6.46-36.49-26.13-36.49-49.37 0-4.26.52-8.41 1.49-12.37h30c2.76 0 5 2.24 5 5z" fill="#ebebff" data-original="#ebebff"></path><g><path d="m121.315 439.065h-15.34c-2.761 0-5-2.239-5-5v-41.739h25.34v41.739c0 2.762-2.239 5-5 5z" fill="#ff6c6c" data-original="#ff6c6c"></path><path d="m100.974 392.326h25.34v16.833h-25.34z" fill="#ff4d4d" data-original="#ff4d4d"></path></g><g><path d="m174.06 427.065h-15.34c-2.761 0-5-2.239-5-5v-29.739h25.34v29.739c0 2.762-2.238 5-5 5z" fill="#6c6cff" data-original="#6c6cff"></path><path d="m153.72 392.326h25.34v16.833h-25.34z" fill="#4d4dff" data-original="#4d4dff"></path></g><path d="m360.89 439.065h-15.34c-2.761 0-5-2.239-5-5v-56.739h25.34v56.739c0 2.762-2.239 5-5 5z" fill="#ff8b00" data-original="#ff8b00"></path><g><path d="m186.112 367.282h-80.248c-1.803 0-3.264-1.461-3.264-3.264v-51.127c0-2.908 3.516-4.364 5.572-2.308l7.815 7.815 8.306-8.312c1.274-1.275 3.341-1.276 4.616-.001z" fill="#ffab66" data-original="#ffab66"></path><path d="m209.216 325.674v38.344c0 1.803-1.461 3.264-3.264 3.264h-100.088c-1.803 0-3.264-1.461-3.264-3.264v-14.088l14.073-14.073c1.274-1.274 3.34-1.275 4.615-.001l5.32 5.315 18.189-18.189c1.275-1.275 3.341-1.275 4.616 0l5.072 5.072 26.251-26.251c1.275-1.275 3.341-1.275 4.616 0z" fill="#ff6c6c" data-original="#ff6c6c"></path></g><g><g><path d="m204.216 282.329h-96.616c-2.762 0-5-2.239-5-5s2.238-5 5-5h96.616c2.762 0 5 2.239 5 5s-2.239 5-5 5z" fill="#b3b3ff" data-original="#b3b3ff"></path></g><g><path d="m204.216 263.182h-96.616c-2.762 0-5-2.239-5-5s2.238-5 5-5h96.616c2.762 0 5 2.239 5 5s-2.239 5-5 5z" fill="#b3b3ff" data-original="#b3b3ff"></path></g><g><path d="m204.216 244.036h-96.616c-2.762 0-5-2.239-5-5s2.238-5 5-5h96.616c2.762 0 5 2.239 5 5s-2.239 5-5 5z" fill="#b3b3ff" data-original="#b3b3ff"></path></g><g><path d="m204.216 224.89h-96.616c-2.762 0-5-2.239-5-5s2.238-5 5-5h96.616c2.762 0 5 2.239 5 5s-2.239 5-5 5z" fill="#b3b3ff" data-original="#b3b3ff"></path></g><g><path d="m204.216 205.744h-96.616c-2.762 0-5-2.239-5-5s2.238-5 5-5h96.616c2.762 0 5 2.239 5 5s-2.239 5-5 5z" fill="#b3b3ff" data-original="#b3b3ff"></path></g></g><g><g><path d="m362.64 282.329h-96.616c-2.762 0-5-2.239-5-5s2.238-5 5-5h96.616c2.762 0 5 2.239 5 5s-2.238 5-5 5z" fill="#b3b3ff" data-original="#b3b3ff"></path></g><g><path d="m362.64 263.182h-96.616c-2.762 0-5-2.239-5-5s2.238-5 5-5h96.616c2.762 0 5 2.239 5 5s-2.238 5-5 5z" fill="#b3b3ff" data-original="#b3b3ff"></path></g><g><path d="m362.64 244.036h-96.616c-2.762 0-5-2.239-5-5s2.238-5 5-5h96.616c2.762 0 5 2.239 5 5s-2.238 5-5 5z" fill="#ffab66" data-original="#ffab66"></path></g><g><path d="m362.64 224.89h-96.616c-2.762 0-5-2.239-5-5s2.238-5 5-5h96.616c2.762 0 5 2.239 5 5s-2.238 5-5 5z" fill="#ffab66" data-original="#ffab66"></path></g><g><path d="m362.64 205.744h-96.616c-2.762 0-5-2.239-5-5s2.238-5 5-5h96.616c2.762 0 5 2.239 5 5s-2.238 5-5 5z" fill="#b3b3ff" data-original="#b3b3ff"></path></g></g><g><g><path d="m362.64 358.913h-96.616c-2.762 0-5-2.239-5-5s2.238-5 5-5h96.616c2.762 0 5 2.239 5 5s-2.238 5-5 5z" fill="#b3b3ff" data-original="#b3b3ff"></path></g><g><path d="m362.64 339.767h-96.616c-2.762 0-5-2.239-5-5s2.238-5 5-5h96.616c2.762 0 5 2.239 5 5s-2.238 5-5 5z" fill="#b3b3ff" data-original="#b3b3ff"></path></g><g><path d="m362.64 320.621h-96.616c-2.762 0-5-2.239-5-5s2.238-5 5-5h96.616c2.762 0 5 2.239 5 5s-2.238 5-5 5z" fill="#b3b3ff" data-original="#b3b3ff"></path></g><g><path d="m362.64 301.475h-96.616c-2.762 0-5-2.239-5-5s2.238-5 5-5h96.616c2.762 0 5 2.239 5 5s-2.238 5-5 5z" fill="#b3b3ff" data-original="#b3b3ff"></path></g></g><g><path d="m204.216 306.532c-2.761 0-5-2.239-5-5v-.115c0-2.761 2.239-5 5-5s5 2.239 5 5v.115c0 2.761-2.239 5-5 5z" fill="#ff4d4d" data-original="#ff4d4d"></path></g><g><circle cx="407.845" cy="150.7" fill="#4d4dff" r="51.625" data-original="#4d4dff"></circle><path d="m413.647 145.7h-.803v-7.972h7.872c2.762 0 5-2.239 5-5s-2.238-5-5-5h-7.872v-1.692c0-2.761-2.238-5-5-5s-5 2.239-5 5v1.692h-.803c-7.712 0-13.986 6.274-13.986 13.986s6.274 13.986 13.986 13.986h.803v7.972h-7.872c-2.762 0-5 2.239-5 5s2.238 5 5 5h7.872v1.692c0 2.761 2.238 5 5 5s5-2.239 5-5v-1.692h.803c7.712 0 13.986-6.274 13.986-13.986s-6.274-13.986-13.986-13.986zm-11.605 0c-2.198 0-3.986-1.788-3.986-3.986s1.788-3.986 3.986-3.986h.803v7.972zm11.605 17.971h-.803v-7.971h.803c2.198 0 3.986 1.788 3.986 3.986s-1.787 3.985-3.986 3.985z" fill="#ffffff" data-original="#ffffff" class=""></path></g><path d="m367.64 200.749c0 1.57-.73 2.97-1.86 3.89-1.98-2.77-3.69-5.75-5.09-8.89h1.95c2.76 0 5 2.229 5 5z" fill="#ebebff" data-original="#ebebff"></path><g><path d="m367.64 200.749c0 1.57-.73 2.97-1.86 3.89-1.98-2.77-3.69-5.75-5.09-8.89h1.95c2.76 0 5 2.229 5 5z" fill="#9494ff" data-original="#9494ff"></path></g></g><g><path d="m239.978 105.068c-1.279 0-2.56-.488-3.535-1.464l-4.465-4.464-4.465 4.464c-1.951 1.952-5.119 1.952-7.07 0-1.953-1.953-1.953-5.119 0-7.071l8-8c1.951-1.952 5.119-1.952 7.07 0l8 8c1.953 1.953 1.953 5.119 0 7.071-.976.976-2.256 1.464-3.535 1.464z" fill="#ffab66" data-original="#ffab66"></path></g><g><path d="m260.024 75.083c-1.279 0-2.56-.488-3.535-1.464l-4.465-4.464-4.465 4.464c-1.951 1.952-5.119 1.952-7.07 0-1.953-1.953-1.953-5.119 0-7.071l8-8c1.951-1.952 5.119-1.952 7.07 0l8 8c1.953 1.953 1.953 5.119 0 7.071-.975.976-2.255 1.464-3.535 1.464z" fill="#ff6c6c" data-original="#ff6c6c"></path></g><g><path d="m455.959 246.037c-1.279 0-2.56-.488-3.535-1.464l-4.465-4.464-4.465 4.464c-1.951 1.952-5.119 1.952-7.07 0-1.953-1.953-1.953-5.119 0-7.071l8-8c1.951-1.952 5.119-1.952 7.07 0l8 8c1.953 1.953 1.953 5.119 0 7.071-.975.975-2.256 1.464-3.535 1.464z" fill="#ff6c6c" data-original="#ff6c6c"></path></g><g fill="#6c6cff"><path d="m195.188 44.579h-3v-3c0-2.761-2.238-5-5-5s-5 2.239-5 5v3h-3c-2.762 0-5 2.239-5 5s2.238 5 5 5h3v3c0 2.761 2.238 5 5 5s5-2.239 5-5v-3h3c2.762 0 5-2.239 5-5s-2.238-5-5-5z" fill="#6c6cff" data-original="#6c6cff"></path><path d="m194.111 458.065h-3v-3c0-2.761-2.238-5-5-5s-5 2.239-5 5v3h-3c-2.762 0-5 2.239-5 5s2.238 5 5 5h3v3c0 2.761 2.238 5 5 5s5-2.239 5-5v-3h3c2.762 0 5-2.239 5-5s-2.238-5-5-5z" fill="#6c6cff" data-original="#6c6cff"></path></g></g><g><g><g><circle cx="139.331" cy="115.01" fill="#ff9d33" r="51.625" data-original="#ff9d33"></circle><path d="m464.47 150.7c0-31.223-25.402-56.625-56.625-56.625-6.181 0-12.127 1.009-17.7 2.848.111-1.45.187-2.904.187-4.363 0-31.224-25.402-56.625-56.625-56.625s-56.625 25.402-56.625 56.625c0 15.002 6.038 29.289 16.344 39.771h-100.189c1.76-5.463 2.72-11.281 2.72-17.321 0-31.224-25.402-56.625-56.626-56.625-31.223 0-56.625 25.402-56.625 56.625 0 6.04.96 11.858 2.72 17.321h-22.895c-8.271 0-15 6.729-15 15v259.995c0 8.271 6.729 15 15 15h33.443v11.739c0 5.514 4.486 10 10 10h15.34c5.514 0 10-4.486 10-10v-11.739h17.418c.14 5.393 4.561 9.739 9.987 9.739h15.341c5.426 0 9.847-4.346 9.987-9.739h123.511c2.762 0 5-2.239 5-5s-2.238-5-5-5h-67.438v-15h95.43v36.739c0 5.514 4.486 10 10 10h15.34c5.514 0 10-4.486 10-10v-11.739h36.819c8.271 0 15-6.729 15-15v-201.995c24.033-6.547 41.761-28.552 41.761-54.631zm-177.388-58.14c0-25.709 20.916-46.625 46.625-46.625s46.625 20.916 46.625 46.625c0 3.103-.324 6.189-.927 9.206-11.649 6.797-20.659 17.625-25.11 30.565h-44.898c-13.777-8.445-22.315-23.597-22.315-39.771zm64.76 49.771c-.406 2.732-.623 5.525-.623 8.369 0 2.244.146 4.454.401 6.631h-111.5v-15zm-121.722 0v15h-53.224c4.804-4.269 8.88-9.337 12.013-15zm-147.589 244.995v-219.995h35.167c6.669 2.768 13.974 4.304 21.633 4.304s14.964-1.536 21.634-4.304h69.155v219.996h-147.589zm56.8-318.942c25.71 0 46.626 20.916 46.626 46.625s-20.916 46.625-46.626 46.625c-25.709 0-46.625-20.916-46.625-46.625s20.916-46.625 46.625-46.625zm-76.8 343.942c-2.757 0-5-2.243-5-5v-259.995c0-2.757 2.243-5 5-5h27.222c3.133 5.663 7.209 10.731 12.013 15h-19.235c-5.514 0-10 4.486-10 10v219.996c0 5.514 4.486 10 10 10h13.443v15h-33.443zm43.444 21.739v-36.739h15.341l.006 36.739zm25.339-36.739h17.405v15h-17.405zm27.406 24.739v-24.739h15.342l.005 24.739zm71.4-9.739h-46.06v-15h46.06zm115.43 21.739v-51.739h15.341l.006 51.739zm67.159-26.739c0 2.757-2.243 5-5 5h-36.819v-15h16.819c5.514 0 10-4.486 10-10v-154.919c0-2.761-2.238-5-5-5s-5 2.239-5 5v154.919h-16.819v-10c0-2.761-2.238-5-5-5h-25.34c-2.762 0-5 2.239-5 5v10h-95.43v-219.995h113.596c7.122 23.132 28.692 39.994 54.129 39.994 1.64 0 3.259-.086 4.864-.223zm-4.864-210.001c-25.709 0-46.625-20.916-46.625-46.625s20.916-46.625 46.625-46.625 46.625 20.915 46.625 46.625c0 25.709-20.916 46.625-46.625 46.625z" fill="#0000cc" data-original="#0000cc" class=""></path></g></g><path d="m160.702 137.09c-.927-2.602-3.789-3.957-6.389-3.03-2.169.773-4.45 1.165-6.781 1.165-6.198 0-11.748-2.809-15.459-7.214h13.08c2.762 0 5-2.239 5-5s-2.238-5-5-5h-17.591c-.147-.983-.249-1.982-.249-3.005 0-.647.037-1.285.097-1.917h22.941c2.762 0 5-2.239 5-5s-2.238-5-5-5h-19.112c3.683-5.017 9.605-8.293 16.294-8.293 2.315 0 4.598.395 6.782 1.173 2.602.927 5.462-.431 6.388-3.032.927-2.601-.431-5.461-3.032-6.388-3.265-1.163-6.676-1.753-10.138-1.753-12.432 0-23.131 7.545-27.765 18.293h-3.097c-2.762 0-5 2.239-5 5s2.238 5 5 5h.709c-.04.635-.067 1.273-.067 1.917 0 1.014.052 2.016.15 3.005h-.792c-2.762 0-5 2.239-5 5s2.238 5 5 5h3.588c4.87 10.172 15.264 17.214 27.273 17.214 3.479 0 6.89-.587 10.139-1.746 2.601-.928 3.958-3.788 3.031-6.389z" fill="#ffffff" data-original="#ffffff" class=""></path></g></g></g></g></svg>