<svg xmlns="http://www.w3.org/2000/svg" version="1.1" xmlns:xlink="http://www.w3.org/1999/xlink" xmlns:svgjs="http://svgjs.com/svgjs" width="512" height="512" x="0" y="0" viewBox="0 0 512 512" style="enable-background:new 0 0 512 512" xml:space="preserve" class=""><g><linearGradient id="SVGID_1_" gradientUnits="userSpaceOnUse" x1="129.392" x2="484.446" y1="398.555" y2="43.502"><stop stop-opacity="1" stop-color="#ffffff" offset="0"></stop><stop stop-opacity="1" stop-color="#ededff" offset="0.2617"></stop><stop stop-opacity="1" stop-color="#ffbb94" offset="0.629"></stop></linearGradient><g><g><path d="m502.299 128.156c36.662-58.462-38.091-126.33-99.074-81.085-91.07 67.568-157.917 49.684-251.871 24.312-90.884-24.543-163.926 100.733-149.537 182.766 11.206 63.886 94.434 63.55 147.802 69.556 144.467 16.258 68.371 155.647 120.909 146.007 29.637-5.438 50.916-40.004 80.853-36.657 17.397 1.945 31.187 16.302 48.335 19.819 41.358 8.483 105.03-33.687 86.491-82.151-39.946-104.426-45.853-143.789 16.092-242.567z" fill="url(#SVGID_1_)" data-original="url(#SVGID_1_)"></path></g><g><g><path d="m463.761 255.316-12.922-1.301c-6.648-.677-13.064-2.834-18.768-6.327l-3.654-2.246c-1.426-.873-2.887-1.657-4.385-2.353l-.001.001c-.002-.005-.003-.011-.005-.016-4.12-1.932-8.493-3.203-12.959-3.801-3.202-9.463-1.552-20.965-.505-26.198.271-1.353-1.022-2.478-2.34-2.068-12.749 3.969-17.316 14.785-18.952 22.264-.699-.828-1.452-1.625-2.266-2.382-7.528-7.002-17.989-8.865-27.079-5.767-.697.237-1.237.817-1.424 1.53-2.442 9.302.185 19.589 7.713 26.591 1.682 1.565 3.514 2.865 5.441 3.919l-3.379 7.324c-6.122 13.272-17.043 23.306-30.117 28.52.009.005.018.01.027.016-.036.015-.073.029-.109.044-6.591 2.626-13.819 3.139-20.798 1.861-.439-.081-.909-.16-1.394-.24v-66.696c0-12.131-4.554-23.195-12.038-31.59h76.621c5.523 0 10-4.477 10-10v-79.943c0-5.523-4.477-10-10-10h-92.617c-5.523 0-10 4.477-10 10v74.979c-3.059-.619-6.224-.946-9.466-.946h-16.791v-4.531c0-2.611-1.909-4.943-4.508-5.192-2.982-.285-5.492 2.053-5.492 4.977v4.746h-13.682v-32.061h1.856c3.314 0 6-2.686 6-6v-9.745c0-3.314-2.686-6-6-6h-1.877c-.423-16.199-13.678-29.204-29.98-29.204h-15.961c.544-.8.863-1.766.863-2.807v-10.778c0-8.284-6.716-15-15-15h-87.399c-8.284 0-15 6.716-15 15v32.007c-3.151 1.758-5.285 5.12-5.285 8.985v74.509c0 3.865 2.134 7.227 5.285 8.985v50.105c0 .275.038.54.081.803h-4.819c-2.761 0-5 2.239-5 5v24.342h-16.61c-4.126 0-7.47 3.344-7.47 7.47v7.377c0 2.947 2.389 5.336 5.336 5.336h3.403c-2.12 6.839-5.14 13.391-9.065 19.446-3.978 6.139-6.289 13.459-6.289 21.32v100.261c0 5.944 4.818 10.762 10.762 10.762l385.433-.002c2.761 0 5-2.239 5-5l-.003-71.849c0-2.761-2.239-5-5-5h-10.073c.122-2.725.192-5.526.192-8.423 4.367-26.895 10.302-43.292 13.1-49.994 23.99-3.725 35.825-13.563 41.065-19.802l11.496 1.158c5.383.553 10.07-3.672 10.07-9.09v-11.55c-.003-13.278-10.055-24.399-23.262-25.736zm-306.042-157.835c-16.301 0-29.556 13.004-29.98 29.204h-1.877c-3.314 0-6 2.686-6 6v9.745c0 3.314 2.686 6 6 6h1.856v164.407c-6.433 4.765-11.558 10.564-14.873 17.597-.32.679-.626 1.369-.92 2.066-.709-1.463-1.49-2.884-2.369-4.24-3.924-6.056-6.945-12.608-9.064-19.446h3.403c2.947 0 5.336-2.389 5.336-5.336v-7.377c0-4.126-3.344-7.47-7.47-7.47h-16.61v-24.341c0-2.761-2.239-5-5-5h-4.819c.043-.263.081-.528.081-.803v-50.104c3.151-1.758 5.286-5.12 5.286-8.985v-74.509c0-3.865-2.134-7.228-5.286-8.985v-32.008c0-2.757 2.243-5 5-5h87.403c2.757 0 5 2.243 5 5v10.778c0 1.041.319 2.007.863 2.807zm123.167 196.595c-7.126.602-15.23 1.623-24.385 3.228-11.697 2.051-20.983 3.08-28.588 3.45v-85.263h13.682v4.71c0 2.761 2.239 5 5 5s5-2.239 5-5v-4.71h16.791c6.893 0 12.5 5.607 12.5 12.5z" fill="#0000cb" opacity=".1" data-original="#0000cb" class=""></path><g><g><g><g><g><path d="m380.469 172.401h-92.617c-5.523 0-10-4.477-10-10v-79.943c0-5.523 4.477-10 10-10h92.617c5.523 0 10 4.477 10 10v79.943c0 5.523-4.477 10-10 10z" fill="#1c1a18" data-original="#ffaa66" class=""></path></g><g><g fill="#ffe7db"><path d="m345.252 116.209h20.716c2.761 0 5-2.239 5-5s-2.239-5-5-5h-20.716c-2.761 0-5 2.239-5 5s2.238 5 5 5z" fill="#ffede5" data-original="#ffe7db" class=""></path><path d="m365.968 124.901h-20.716c-2.761 0-5 2.239-5 5s2.239 5 5 5h20.716c2.761 0 5-2.239 5-5 0-2.762-2.239-5-5-5z" fill="#ffede5" data-original="#ffe7db" class=""></path><path d="m365.968 143.591h-62.34c-2.761 0-5 2.239-5 5s2.239 5 5 5h62.34c2.761 0 5-2.239 5-5s-2.239-5-5-5z" fill="#ffede5" data-original="#ffe7db" class=""></path></g><g><path d="m330.965 119.211c0 8.665-7.025 15.69-15.69 15.69s-15.69-7.025-15.69-15.69c0-8.535 8.873-21.726 13.274-27.744 1.195-1.634 3.638-1.634 4.833 0 4.401 6.017 13.273 19.208 13.273 27.744z" fill="#ffffff" data-original="#ffffff" class=""></path></g></g></g><g><path d="m298.386 343.705c-9.665 0-17.5-7.835-17.5-17.5v-122.214c0-6.893-5.607-12.5-12.5-12.5h-47.502c-9.665 0-17.5-7.835-17.5-17.5s7.835-17.5 17.5-17.5h47.502c26.191 0 47.5 21.309 47.5 47.5v122.214c0 9.665-7.835 17.5-17.5 17.5z" fill="#6c6cff" data-original="#6c6cff" class=""></path></g></g><path d="m227.914 297.883h-100.195v-194.402c0-16.569 13.431-30 30-30h40.194c16.569 0 30 13.431 30 30v194.402z" fill="#9393ff" data-original="#9393ff" class=""></path><path d="m127.719 115.181h100.194v28.51h-100.194z" fill="#8282ff" data-original="#8282ff" class=""></path><g><path d="m143.48 115.181h16.779v182.702h-16.779z" fill="#b2b2ff" data-original="#b2b2ff" class=""></path><path d="m143.48 115.181h16.779v28.51h-16.779z" fill="#9393ff" data-original="#9393ff" class=""></path></g><g><path d="m167.427 115.181h8.389v182.702h-8.389z" fill="#b2b2ff" data-original="#b2b2ff" class=""></path><path d="m167.427 115.181h8.389v28.51h-8.389z" fill="#9393ff" data-original="#9393ff" class=""></path></g><g><g fill="#fff"><path d="m424.027 219.074c-9.143-4.287-19.526-5.355-29.428-2.914-9.205 0-17.57 5.353-21.426 13.712l-4.896 10.615c-6.122 13.272-17.043 23.306-30.117 28.52.848.504 1.718 1 2.636 1.476 31.376 16.276 32.837-13.612 60.962-16.839 26.855-3.082 26.523-21.112 22.269-34.57z" fill="#ffffff" data-original="#ffffff" class=""></path><path d="m424.39 296.335c-2.798 6.702-8.733 23.099-13.1 49.994-.066-.003-.132-.007-.198-.01-9.098-.486-16.115-8.449-15.393-17.532 1.489-18.718-9.695-28.728 6.055-37.246 10.124-5.49 22.636 4.794 22.636 4.794z" fill="#ffffff" data-original="#ffffff" class=""></path><path d="m463.761 231.316-12.922-1.301c-6.648-.677-13.064-2.834-18.768-6.327l-3.654-2.246c-1.426-.873-2.887-1.657-4.385-2.353l-12.797 18.964-54.485 30.959h-18.536c-.045.018-.091.036-.136.054-6.591 2.626-13.819 3.139-20.798 1.861-9.219-1.689-28.46-3.289-60.779 2.377-67.118 11.766-55.046-10.013-99.417 2.154-20.168 5.531-36.774 15.14-44.238 30.976-21.197 44.977 15.99 130.17 15.99 130.17h242.832s39.621-17.866 39.621-90.275l-3.048-28.197 16.148-21.798c23.99-3.725 35.825-13.563 41.065-19.802l11.496 1.158c5.383.553 10.07-3.672 10.07-9.09v-11.55c0-13.276-10.052-24.397-23.259-25.734z" fill="#ffffff" data-original="#ffffff" class=""></path></g><path d="m116.487 401.654h284.642c2.825-6.485 5.303-14.067 7.104-22.901h-297.538c1.691 8.074 3.715 15.831 5.792 22.901z" fill="#d8d8ff" data-original="#d8d8ff" class=""></path><path d="m193.602 349.06c-11.597 45.423 53.154 80.879 78.765 53.637s38.658-24.644 50.255-54.121-18.362-29.96-10.631-58.649c2.562-9.508.399-15.876-3.636-20.145-10.819-.889-27.676-.717-51.853 3.521-67.118 11.766-55.046-10.013-99.417 2.154-17.396 4.77-32.125 12.586-40.64 24.803 27.005 27.941 87.127 9.751 77.157 48.8z" fill="#1c1a18" data-original="#ffaa66" class=""></path><path d="m196.58 378.752c4.366 9.218 11.656 17.103 20.194 22.901h56.593c10.818-11.324 19.368-17.354 26.509-22.901z" fill="#ff8f18" data-original="#ff9c33" class=""></path><g><g><path d="m388.359 216.931s-.314-18.546 13.717-27.157c3.585-2.2 8.101.694 7.599 4.87-.771 6.418-.974 15.366 2.157 22.639 0-.001-13.895 8.429-23.473-.352z" fill="#ffede5" data-original="#ffe7db" class=""></path><path d="m487.018 268.602v-11.556c0-7.446-3.165-14.211-8.273-18.953-.584-.055-1.181-.063-1.789-.001l-11.493 1.16s-7.071 1.847-7.071 11.529c0 9.067 20.79 11.879 17.329 26.795l1.235.125c5.385.542 10.062-3.686 10.062-9.099z" fill="#ffb2b2" data-original="#ffb2b2" class=""></path><path d="m424.027 219.074c-9.143-4.287-19.526-5.355-29.428-2.914-9.205 0-17.57 5.353-21.426 13.712l-4.896 10.615c-6.122 13.272-17.043 23.306-30.117 28.52.848.504 1.718 1 2.636 1.476 31.376 16.276 32.837-13.612 60.962-16.839 26.855-3.082 26.523-21.112 22.269-34.57z" fill="#1c1a18" data-original="#ffaa66" class=""></path><path d="m424.39 296.335c-2.798 6.702-8.733 23.099-13.1 49.994-.066-.003-.132-.007-.198-.01-9.098-.486-16.115-8.449-15.393-17.532 1.489-18.718-9.695-28.728 6.055-37.246 10.124-5.49 22.636 4.794 22.636 4.794z" fill="#1c1a18" data-original="#ffaa66" class=""></path><g><path d="m472.006 255.563c-1.362 0-2.673-.751-3.325-2.052l-.598-1.194c-.919-1.834-.177-4.067 1.658-4.986 1.836-.919 4.067-.176 4.986 1.658l.598 1.194c.919 1.834.177 4.067-1.658 4.986-.534.268-1.102.394-1.661.394z" fill="#6c6cff" data-original="#6c6cff" class=""></path></g></g></g><path d="m387.005 206.89c6.267 5.828 9.129 13.942 8.516 21.863-.29 3.751-3.166 6.844-6.886 7.407-7.86 1.189-16.153-1.087-22.42-6.916-7.529-7.002-10.155-17.29-7.713-26.591.187-.712.727-1.292 1.424-1.53 9.09-3.098 19.551-1.235 27.079 5.767z" fill="#251b13" data-original="#ffc498" class=""></path><g><g><g><path d="m92.475 363.002h54.82v73.6h-54.82z" fill="#6c6cff" data-original="#6c6cff" class=""></path></g><path d="m92.475 363.002h54.82v38.65h-54.82z" fill="#4d4dff" data-original="#4d4dff" class=""></path></g><g><g><path d="m185.425 363.002h54.83v73.6h-54.83z" fill="#6c6cff" data-original="#6c6cff" class=""></path></g><path d="m185.425 363.002h54.83v38.65h-54.83z" fill="#4d4dff" data-original="#4d4dff" class=""></path></g><g><g><path d="m278.385 363.002h54.83v73.6h-54.83z" fill="#6c6cff" data-original="#6c6cff" class=""></path></g><path d="m278.385 363.002h54.83v38.65h-54.83z" fill="#4d4dff" data-original="#4d4dff" class=""></path></g><g><g><path d="m426.175 363.002v68.6c0 2.761-2.239 5-5 5h-49.83v-73.6z" fill="#6c6cff" data-original="#6c6cff" class=""></path></g><path d="m371.345 363.002h54.83v38.65h-54.83z" fill="#4d4dff" data-original="#4d4dff" class=""></path></g><path d="m426.171 377.654h-333.7v-17.901c0-2.761 2.239-5 5-5h323.7c2.761 0 5 2.239 5 5z" fill="#9393ff" data-original="#9393ff" class=""></path></g></g><path d="m229.77 124.43h-103.907c-3.314 0-6-2.686-6-6v-9.745c0-3.314 2.686-6 6-6h103.907c3.314 0 6 2.686 6 6v9.745c0 3.313-2.686 6-6 6z" fill="#d8d8ff" data-original="#d8d8ff" class=""></path><circle cx="198.713" cy="158.491" fill="#6c6cff" r="10" data-original="#6c6cff" class=""></circle><g><path d="m191.901 194.677h13.624c2.761 0 5 2.239 5 5s-2.239 5-5 5h-13.624c-2.761 0-5-2.239-5-5s2.239-5 5-5z" fill="#ffffff" data-original="#ffffff" class=""></path></g><g><path d="m191.901 176.682h13.624c2.761 0 5 2.239 5 5s-2.239 5-5 5h-13.624c-2.761 0-5-2.239-5-5s2.239-5 5-5z" fill="#ffffff" data-original="#ffffff" class=""></path></g><path d="m190.11 256.552v-36.507c0-2.761 2.239-5 5-5h10.415c2.761 0 5 2.239 5 5v36.507c0 2.761-2.239 5-5 5h-10.415c-2.762 0-5-2.239-5-5z" fill="#ff6c6c" data-original="#ff6c6c" class=""></path><g><g><g><path d="m99.768 282.358h-58.708c-2.13 7.728-5.398 15.125-9.791 21.903-3.978 6.139-6.289 13.459-6.289 21.32v100.262c0 5.944 4.818 10.762 10.762 10.762h69.344c5.944 0 10.762-4.818 10.762-10.762v-100.263c0-7.861-2.311-15.181-6.289-21.32-4.393-6.777-7.662-14.174-9.791-21.902z" fill="#ffede5" data-original="#ffe7db" class=""></path><path d="m99.768 282.358h-58.708c-2.13 7.728-5.398 15.125-9.791 21.903h78.289c-4.392-6.778-7.661-14.175-9.79-21.903z" fill="#ffdbc4" data-original="#ffd5ba" class=""></path><path d="m24.98 328.167h90.868v72.966h-90.868z" fill="#ff6c6c" data-original="#ff6c6c" class=""></path><path d="m24.98 401.133h90.868v13.593h-90.868z" fill="#ffdbc4" data-original="#ffd5ba" class=""></path></g><g><path d="m85.152 264.766h-29.477v-24.476c0-2.761 2.239-5 5-5h19.476c2.761 0 5 2.239 5 5v24.476z" fill="#d8d8ff" data-original="#d8d8ff" class=""></path><path d="m103.897 284.814h-66.966c-2.947 0-5.336-2.389-5.336-5.336v-7.377c0-4.126 3.344-7.47 7.47-7.47h62.697c4.126 0 7.47 3.344 7.47 7.47v7.377c0 2.947-2.389 5.336-5.335 5.336z" fill="#1c1a18" data-original="#ffaa66" class=""></path></g></g><g><g><path d="m47.929 391.274h10.888c2.761 0 5-2.239 5-5s-2.239-5-5-5h-10.888c-2.761 0-5 2.239-5 5s2.238 5 5 5z" fill="#ffb2b2" data-original="#ffb2b2" class=""></path></g><g fill="#ffb2b2"><circle cx="77.899" cy="386.274" r="5" fill="#ffb2b2" data-original="#ffb2b2" class=""></circle><circle cx="92.899" cy="386.274" r="5" fill="#ffb2b2" data-original="#ffb2b2" class=""></circle></g></g></g></g><g><path d="m70.414 185.682c-5.681 0-10.286-4.605-10.286-10.285v-74.509c0-5.681 4.605-10.285 10.285-10.285 5.681 0 10.285 4.605 10.285 10.285v74.509c.001 5.68-4.604 10.285-10.284 10.285z" fill="#d8d8ff" data-original="#d8d8ff" class=""></path><path d="m464.265 226.345-12.924-1.31c-5.873-.592-11.634-2.531-16.646-5.602l-3.675-2.265c-1.505-.916-3.016-1.733-4.497-2.434-.121-.07-.246-.135-.374-.195-3.559-1.664-7.292-2.879-11.105-3.654-1.197-5.423-.926-11.348-.411-15.64.471-3.852-1.262-7.544-4.521-9.637-3.263-2.094-7.342-2.132-10.651-.098-6.393 3.933-10.241 9.51-12.568 14.885-8.27-5.758-18.851-7.321-28.578-4.007-2.294.781-4.032 2.647-4.648 4.993-2.996 11.413.509 23.491 9.145 31.522.8.744 1.641 1.426 2.501 2.078l-1.571 3.414c-5.474 11.868-15.217 21.091-27.435 25.97-.15.06-.296.126-.438.2-4.628 1.769-9.751 2.383-14.979 1.827v-62.402c0-9.699-2.654-18.785-7.258-26.589h66.838c8.271 0 15-6.729 15-15v-79.943c0-8.271-6.729-15-15-15h-92.617c-8.271 0-15 6.729-15 15v44.254c0 2.761 2.238 5 5 5s5-2.239 5-5v-44.254c0-2.757 2.243-5 5-5h92.617c2.757 0 5 2.243 5 5v79.943c0 2.757-2.243 5-5 5h-74.481c-9.544-9.804-22.868-15.911-37.598-15.911h-16.82c-.135-2.64-2.3-4.745-4.974-4.745s-4.839 2.105-4.974 4.745h-8.711v-22.523c4.539-1.355 7.86-5.563 7.86-10.537v-9.745c0-5.13-3.535-9.438-8.293-10.649-2.589-16.895-16.986-29.556-34.569-29.556h-15.09v-8.58c0-8.271-6.729-15-15-15h-87.41c-8.271 0-15 6.729-15 15v26.561c-5.975 2.079-10.282 7.753-10.282 14.427v74.509c0 6.674 4.307 12.348 10.282 14.427v40.466h-4.735c-5.514 0-10 4.486-10 10v19.342h-11.61c-6.876 0-12.47 5.594-12.47 12.47v7.377c0 4.481 2.872 8.295 6.868 9.724-1.75 4.338-3.882 8.473-6.389 12.337-4.641 7.16-7.094 15.473-7.094 24.04v100.26c0 8.69 7.07 15.76 15.76 15.76l111.559.004c2.761 0 5-2.239 5-5v-53.95h28.131v53.946c0 2.761 2.239 5 5 5h54.83c2.761 0 5-2.239 5-5v-53.946h28.13v53.946c0 2.761 2.238 5 5 5h54.82c2.762 0 5-2.239 5-5v-53.946h28.13v53.946c0 2.761 2.238 5 5 5h49.83c5.514 0 10-4.486 10-10l.001-71.848c0-5.514-4.486-10-10-10h-4.912c.017-.99.029-1.991.031-3.014 1.876-11.437 4.212-22.066 6.946-31.601 1.79-6.245 3.458-11.001 4.75-14.343 21.663-3.931 33.579-12.856 39.485-19.036l8.97.905c3.976.408 7.951-.896 10.916-3.573 2.963-2.675 4.662-6.5 4.662-10.491v-11.55c.001-15.91-11.933-29.111-27.754-30.704zm-59.56-32.3c-.518 4.321-.818 10.065.003 15.848-2.808.025-5.616.287-8.391.794-.499-.862-1.028-1.708-1.608-2.522 1.396-4.844 4.229-10.59 9.996-14.12zm-153.11-32.555h16.794c23.435 0 42.5 19.065 42.5 42.5v60.998c-6.387-.655-14.625-.928-25-.302v-60.696c0-9.649-7.851-17.5-17.5-17.5h-16.794zm-18.685 0h8.685v25h-8.685zm0 35h8.714c.153 2.624 2.309 4.711 4.971 4.711s4.818-2.087 4.971-4.711h16.824c4.136 0 7.5 3.364 7.5 7.5v61.526c-6.128.638-12.86 1.564-20.253 2.859-8.937 1.567-16.385 2.526-22.726 3.048v-74.933zm-3.14-88.805c.551 0 1 .449 1 1v9.745c0 .551-.449 1-1 1h-103.907c-.551 0-1-.449-1-1v-9.745c0-.551.449-1 1-1zm-6.86 21.745v142.491c-11.593.147-18.611-1.445-25.114-2.922-10.582-2.405-19.721-4.481-42.039 1.64-8.766 2.405-16.443 5.445-23.037 9.089v-150.298zm-25-50.95c11.889 0 21.743 8.104 24.326 19.205h-88.841c2.583-11.101 12.436-19.205 24.326-19.205zm-122.5-18.58c0-2.757 2.243-5 5-5h87.41c2.757 0 5 2.243 5 5v8.58h-15.1c-17.583 0-31.98 12.662-34.567 29.556-4.757 1.212-8.29 5.52-8.29 10.648v9.745c0 4.973 3.319 9.181 7.857 10.537v157.414c-4.408 3.551-8.063 7.511-10.962 11.868-1.659-2.895-3.128-5.916-4.391-9.047 3.995-1.43 6.866-5.243 6.866-9.723v-7.377c0-6.876-5.594-12.47-12.47-12.47h-11.61v-19.341c0-5.514-4.486-10-10-10h-4.743v-40.463c5.979-2.077 10.289-7.753 10.289-14.43v-74.509c0-6.677-4.31-12.353-10.289-14.43zm-10.282 115.497v-74.509c0-2.915 2.371-5.286 5.285-5.286 2.915 0 5.286 2.371 5.286 5.286v74.509c0 2.914-2.371 5.285-5.286 5.285-2.913 0-5.285-2.371-5.285-5.285zm-4.453 64.893h19.477v19.342h-19.477zm-24.08 31.812c0-1.362 1.108-2.47 2.47-2.47h62.697c1.362 0 2.47 1.108 2.47 2.47v7.377c0 .185-.151.335-.336.335h-66.965c-.185 0-.335-.15-.335-.335v-7.377zm-6.615 153.738v-100.26c0-6.632 1.897-13.064 5.485-18.6 3.453-5.324 6.286-11.087 8.464-17.167h52.972c2.177 6.078 5.01 11.841 8.463 17.166 3.589 5.537 5.486 11.969 5.486 18.601v100.26c0 3.176-2.584 5.76-5.76 5.76h-69.35c-3.176 0-5.76-2.584-5.76-5.76zm112.319 5.764h-22.556c.706-1.788 1.107-3.728 1.107-5.764v-43.186h21.449zm92.961-.004h-44.83v-48.946h44.83zm92.95 0h-44.82v-48.946h44.82zm92.96 0h-44.83v-48.946h44.83zm60.85-163c0 1.185-.484 2.275-1.364 3.069-.881.796-2.019 1.169-3.203 1.046l-11.5-1.16c-1.643-.168-3.268.492-4.331 1.759-4.393 5.231-15.17 14.535-37.998 18.075-1.721.267-3.18 1.411-3.849 3.019-1.46 3.504-3.712 9.467-6.151 17.974-2.873 10.02-5.318 21.171-7.268 33.145-.044.266-.065.535-.065.804 0 1.166-.013 2.304-.033 3.422h-260.822c-2.761 0-5 2.239-5 5s2.239 5 5 5h275.735v12.901h-300.321v-47.074c0-5.923-1.174-11.723-3.432-17.106 6.135-12.928 19.922-22.414 40.984-28.192 19.899-5.458 27.524-3.726 37.177-1.532 11.408 2.592 25.606 5.818 61.783-.525 32.03-5.61 50.724-3.897 59.017-2.377 8.145 1.494 16.286.755 23.549-2.132.081-.032.161-.066.24-.103.087-.039.188-.086.259-.121.018-.009.034-.018.052-.026 14.388-5.88 25.861-16.83 32.344-30.885l1.326-2.881c2.256.774 4.606 1.312 7.033 1.57.18.019.357.028.534.028 2.524 0 4.693-1.906 4.966-4.472.292-2.746-1.697-5.209-4.443-5.501-4.758-.506-9.121-2.492-12.617-5.745-5.56-5.17-8.023-12.781-6.62-20.169 7.275-1.933 15.044-.028 20.599 5.139 3.641 3.385 5.968 7.776 6.732 12.699.423 2.729 2.98 4.598 5.707 4.174 2.729-.423 4.598-2.979 4.174-5.708-.077-.498-.174-.989-.273-1.479 7.317-.981 14.844.111 21.615 3.195.125.072.254.138.386.199 1.261.58 2.566 1.279 3.855 2.064l3.663 2.258c6.3 3.858 13.52 6.289 20.876 7.03l12.924 1.31c10.695 1.077 18.761 10 18.761 20.755v11.553z" fill="#0000cb" data-original="#0000cb" class=""></path></g></g></g><g><path d="m248.228 59.982c-8.659 0-15.704-7.045-15.704-15.704 0-2.761 2.239-5 5-5s5 2.239 5 5c0 3.145 2.559 5.704 5.704 5.704 3.146 0 5.705-2.559 5.705-5.704 0-2.761 2.239-5 5-5 2.762 0 5 2.239 5 5 0 8.659-7.045 15.704-15.705 15.704z" fill="#ff8f18" data-original="#ff9c33" class=""></path></g><g><path d="m437.748 174.933c-8.659 0-15.704-7.045-15.704-15.704 0-2.761 2.238-5 5-5s5 2.239 5 5c0 3.145 2.559 5.704 5.704 5.704s5.705-2.559 5.705-5.704c0-2.761 2.238-5 5-5s5 2.239 5 5c0 8.659-7.045 15.704-15.705 15.704z" fill="#ff6c6c" data-original="#ff6c6c" class=""></path></g><g><path d="m100.107 479.689c-1.28 0-2.559-.488-3.536-1.464l-5.464-5.464-5.464 5.464c-1.953 1.952-5.118 1.952-7.071 0-1.953-1.953-1.953-5.119 0-7.071l9-9c1.953-1.952 5.118-1.952 7.071 0l9 9c1.953 1.953 1.953 5.119 0 7.071-.977.976-2.256 1.464-3.536 1.464z" fill="#8282ff" data-original="#8282ff" class=""></path></g><g><path d="m467.391 123.541c-1.279 0-2.56-.488-3.535-1.464l-5.465-5.464-5.465 5.464c-1.951 1.952-5.119 1.952-7.07 0-1.953-1.953-1.953-5.119 0-7.071l9-9c1.951-1.952 5.119-1.952 7.07 0l9 9c1.953 1.953 1.953 5.119 0 7.071-.976.976-2.256 1.464-3.535 1.464z" fill="#8282ff" data-original="#8282ff" class=""></path></g><g><path d="m42.962 212.052c-1.28 0-2.559-.488-3.536-1.464l-5.464-5.464-5.464 5.464c-1.953 1.952-5.118 1.952-7.071 0-1.953-1.953-1.953-5.119 0-7.071l9-9c1.953-1.952 5.118-1.952 7.071 0l9 9c1.953 1.953 1.953 5.119 0 7.071-.977.976-2.256 1.464-3.536 1.464z" fill="#ff8f18" data-original="#ff9c33" class=""></path></g></g></g></g></svg>