<svg xmlns="http://www.w3.org/2000/svg" version="1.1" xmlns:xlink="http://www.w3.org/1999/xlink" xmlns:svgjs="http://svgjs.com/svgjs" width="512" height="512" x="0" y="0" viewBox="0 0 152 152" style="enable-background:new 0 0 512 512" xml:space="preserve" class=""><g><linearGradient id="linear-gradient" gradientUnits="userSpaceOnUse" x1="76" x2="76" y1="151.3" y2="10.3"><stop offset="0" stop-color="#e09b3d"></stop><stop offset=".24" stop-color="#c74c4d"></stop><stop offset=".65" stop-color="#c21975"></stop><stop offset="1" stop-color="#7024c4"></stop></linearGradient><linearGradient id="linear-gradient-2" gradientUnits="userSpaceOnUse" x1="46.6" x2="126.96" y1="46.63" y2="126.99"><stop offset="0" stop-color="#99155b"></stop><stop offset=".14" stop-color="#99155b" stop-opacity=".91"></stop><stop offset=".39" stop-color="#99165a" stop-opacity=".66"></stop><stop offset=".74" stop-color="#99175a" stop-opacity=".27"></stop><stop offset=".97" stop-color="#991859" stop-opacity="0"></stop></linearGradient><g id="Layer_2" data-name="Layer 2"><g id="_05.instagram" data-name="05.instagram"><path id="background" d="m152 76a75 75 0 0 1 -1 12.34 76 76 0 1 1 1-12.34z" fill="url(#linear-gradient)" data-original="url(#linear-gradient)" class=""></path><path id="shadow" d="m151 88.34a76 76 0 0 1 -62.72 62.66l-43.64-43.64c-7.22-44.64 4.36-63.66 4.36-63.66h57.35z" fill="url(#linear-gradient-2)" data-original="url(#linear-gradient-2)"></path><g id="icon" fill="#fff"><path d="m91.36 38h-30.72a22.67 22.67 0 0 0 -22.64 22.64v30.72a22.67 22.67 0 0 0 22.64 22.64h30.72a22.66 22.66 0 0 0 22.64-22.64v-30.72a22.67 22.67 0 0 0 -22.64-22.64zm15 53.36a15 15 0 0 1 -15 15h-30.72a15 15 0 0 1 -15-15v-30.72a15 15 0 0 1 15-15h30.72a15 15 0 0 1 15 15z" fill="#ffffff" data-original="#ffffff"></path><path d="m76 56.35a19.66 19.66 0 1 0 19.65 19.65 19.68 19.68 0 0 0 -19.65-19.65zm0 31.65a12 12 0 1 1 12-12 12 12 0 0 1 -12 12z" fill="#ffffff" data-original="#ffffff"></path><circle cx="95.77" cy="56.35" r="4.86" fill="#ffffff" data-original="#ffffff"></circle></g></g></g></g></svg>