<svg xmlns="http://www.w3.org/2000/svg" version="1.1" xmlns:xlink="http://www.w3.org/1999/xlink" xmlns:svgjs="http://svgjs.com/svgjs" width="512" height="512" x="0" y="0" viewBox="0 0 512 512" style="enable-background:new 0 0 512 512" xml:space="preserve" class=""><g><linearGradient id="SVGID_1_" gradientUnits="userSpaceOnUse" x1="105.64" x2="410.901" y1="436.173" y2="130.912"><stop offset="0" stop-color="#fff1ec" stop-opacity="0"></stop><stop offset=".2938" stop-color="#ffe8dc" stop-opacity=".373"></stop><stop offset=".7874" stop-color="#ffd4b9"></stop></linearGradient><g><g><g><path d="m92.308 61.359c-128.574 73.891-120.083 283.339 8.332 362.202 86.442 53.086 198.525 31.892 295.526 61.596 46.244 14.161 78.136-9.423 96.779-52.201 19.225-44.114 27.3-89.608 7.986-134.196-76.898-177.531-200.968-356.741-408.623-237.401z" fill="url(#SVGID_1_)" data-original="url(#SVGID_1_)"></path></g><g><g><g fill="#0000ca" opacity=".1"><path d="m406.96 285.223h-30.051c-2.644 0-4.814 2.06-4.985 4.698-2.044 31.574-14.973 60.226-35.053 82.247h-15.24c-8.284 0-15 6.716-15 15v9.836c-8.752 5.284-18.148 9.602-28.039 12.812v-74.33h33.94c2.762 0 5-2.239 5-5s-2.238-5-5-5h-33.94v-12.333h48.606c2.762 0 5-2.239 5-5s-2.238-5-5-5h-48.606v-12.333h65.053c2.762 0 5-2.239 5-5s-2.238-5-5-5h-65.053v-171.844c0-5.523-4.477-10-10-10h-63.362c-5.523 0-10 4.477-10 10v1.831c-76.551 18.739-133.54 87.875-133.624 170.1-.084 82.118 57.105 151.579 133.624 170.432v1.864c0 5.523 4.477 10 10 10h63.362c5.523 0 10-4.477 10-10v-1.821c9.684-2.371 19.057-5.544 28.039-9.452v6.241c0 8.284 6.716 15 15 15h61c8.284 0 15-6.716 15-15v-61c0-7.001-4.803-12.864-11.289-14.518 14.855-24.157 24.027-52.166 25.62-82.155.152-2.866-2.135-5.275-5.002-5.275zm-305.339-2.017c-.937-60.984 38.698-113.021 93.608-130.844v128.458h-65.054c-2.762 0-5 2.239-5 5s2.238 5 5 5h65.054v12.333h-48.607c-2.762 0-5 2.239-5 5s2.238 5 5 5h48.607v12.333h-33.94c-2.762 0-5 2.239-5 5s2.238 5 5 5h33.94v74.31c-53.571-17.456-92.702-67.589-93.608-126.59z" fill="#0000ca" data-original="#0000ca" class=""></path><path d="m446.896 134.873-64.323-37.137c-2.166-1.25-4.834-1.25-7 0l-64.323 37.137c-2.166 1.25-3.5 3.561-3.5 6.062v74.274c0 2.501 1.334 4.812 3.5 6.062l64.323 37.137c2.166 1.25 4.834 1.25 7 0l64.323-37.137c2.166-1.25 3.5-3.561 3.5-6.062v-74.274c0-2.501-1.334-4.812-3.5-6.062z" fill="#0000ca" data-original="#0000ca" class=""></path></g><g><g><g><path d="m371.924 265.921c-4.614 71.252-64.624 127.655-137.291 126.454-72.717-1.202-131.895-60.452-133.012-133.17-1.143-74.381 58.065-135.467 131.737-137.376v-40.001c-94.969 1.899-171.655 79.685-171.753 175.078-.099 96.47 78.837 175.489 175.307 175.488 93.507-.001 170.146-73.592 175.05-165.899.152-2.863-2.134-5.272-5.002-5.272h-30.051c-2.644 0-4.814 2.06-4.985 4.698z" fill="#ff6c6c" data-original="#ff6c6c" class=""></path></g><path d="m113.02 133.199c30.97-30.97 73.43-50.43 120.34-51.37v40c-35.9.92-68.36 15.9-92.08 39.63z" fill="#6c6cff" data-original="#6c6cff"></path><path d="m371.925 265.909c-4.559 70.513-63.371 126.486-135.015 126.486v40c93.509 0 170.149-73.593 175.052-165.903.152-2.862-2.136-5.269-5.002-5.269h-30.054c-2.638 0-4.811 2.053-4.981 4.686z" fill="#ffc498" data-original="#ffc498"></path><g><path d="m411.96 266.485c-2.362 44.604-21.473 84.828-51.15 114.504l-28.27-28.27c22.552-22.552 37.198-53.018 39.387-86.812.171-2.634 2.343-4.688 4.982-4.688h30.048c2.866 0 5.154 2.405 5.003 5.266z" fill="#ff9c33" data-original="#ff9c33"></path></g><g><g><path d="m268.591 439.202h-63.362c-5.523 0-10-4.477-10-10v-344.226c0-5.523 4.477-10 10-10h63.362c5.523 0 10 4.477 10 10v344.226c0 5.523-4.477 10-10 10z" fill="#d8d8ff" data-original="#d8d8ff"></path></g><g><path d="m257.88 114.25v267.5l-20.97 10.64-20.97-10.64v-267.5c0-11.58 9.39-20.97 20.97-20.97 5.79 0 11.03 2.35 14.83 6.14 3.79 3.8 6.14 9.04 6.14 14.83z" fill="#9393ff" data-original="#9393ff"></path></g><g><path d="m215.938 381.746v18.18c0 11.583 9.39 20.972 20.972 20.972 11.583 0 20.972-9.39 20.972-20.972v-18.18z" fill="#4d4dff" data-original="#4d4dff"></path></g><g><g><path d="m257.882 386.747h-4.203c-2.762 0-5-2.239-5-5s2.238-5 5-5h4.203c2.762 0 5 2.239 5 5s-2.238 5-5 5z" fill="#ffffff" data-original="#ffffff"></path></g><g><path d="m257.882 359.045h-4.203c-2.762 0-5-2.239-5-5s2.238-5 5-5h4.203c2.762 0 5 2.239 5 5s-2.238 5-5 5z" fill="#ffffff" data-original="#ffffff"></path></g><g><path d="m257.882 331.343h-4.203c-2.762 0-5-2.239-5-5s2.238-5 5-5h4.203c2.762 0 5 2.239 5 5s-2.238 5-5 5z" fill="#ffffff" data-original="#ffffff"></path></g><g><path d="m257.882 303.642h-4.203c-2.762 0-5-2.239-5-5s2.238-5 5-5h4.203c2.762 0 5 2.239 5 5s-2.238 5-5 5z" fill="#ffffff" data-original="#ffffff"></path></g><g><path d="m257.882 275.94h-4.203c-2.762 0-5-2.239-5-5s2.238-5 5-5h4.203c2.762 0 5 2.239 5 5s-2.238 5-5 5z" fill="#ffffff" data-original="#ffffff"></path></g><g><path d="m257.882 248.238h-4.203c-2.762 0-5-2.239-5-5s2.238-5 5-5h4.203c2.762 0 5 2.239 5 5s-2.238 5-5 5z" fill="#ffffff" data-original="#ffffff"></path></g><g><path d="m257.882 220.537h-4.203c-2.762 0-5-2.239-5-5s2.238-5 5-5h4.203c2.762 0 5 2.239 5 5s-2.238 5-5 5z" fill="#ffffff" data-original="#ffffff"></path></g><g><path d="m257.882 192.835h-4.203c-2.762 0-5-2.239-5-5s2.238-5 5-5h4.203c2.762 0 5 2.239 5 5s-2.238 5-5 5z" fill="#ffffff" data-original="#ffffff"></path></g><g><path d="m257.882 165.133h-4.203c-2.762 0-5-2.239-5-5s2.238-5 5-5h4.203c2.762 0 5 2.239 5 5s-2.238 5-5 5z" fill="#ffffff" data-original="#ffffff"></path></g><g><path d="m257.882 137.432h-4.203c-2.762 0-5-2.239-5-5s2.238-5 5-5h4.203c2.762 0 5 2.239 5 5s-2.238 5-5 5z" fill="#ffffff" data-original="#ffffff"></path></g></g></g></g><g><g><g><path d="m307.75 116.935v74.274c0 2.501 1.334 4.812 3.5 6.062l64.323 37.137c2.166 1.25 4.834 1.25 7 0l64.323-37.137c2.166-1.25 3.5-3.561 3.5-6.062v-74.274c0-2.501-1.334-4.812-3.5-6.062l-64.323-37.137c-2.166-1.25-4.834-1.25-7 0l-64.323 37.137c-2.166 1.25-3.5 3.561-3.5 6.062z" fill="#9393ff" data-original="#9393ff"></path></g></g><path d="m420.642 160.77-13.636 3.654-8.382-4.838v-11.027l8.381-4.838 13.638 3.654c.434.116.868.172 1.297.172 2.208 0 4.229-1.474 4.827-3.708.714-2.667-.868-5.409-3.536-6.124l-3.977-1.066 3.059-1.766c2.392-1.38 3.211-4.438 1.83-6.83-1.38-2.392-4.439-3.212-6.83-1.831l-3.061 1.767 1.067-3.981c.714-2.667-.868-5.409-3.536-6.124-2.666-.716-5.409.868-6.124 3.536l-3.655 13.639-8.38 4.837-9.551-5.514-.001-9.675 9.986-9.985c1.953-1.953 1.953-5.118.001-7.071-1.953-1.953-5.12-1.953-7.071 0l-2.917 2.917v-3.535c0-2.762-2.239-5-5.001-5-2.761 0-4.999 2.239-4.999 5v3.526l-2.91-2.91c-1.951-1.952-5.119-1.952-7.07 0-1.953 1.953-1.953 5.119 0 7.071l9.982 9.982.001 9.679-9.549 5.513-8.38-4.838-3.655-13.638c-.714-2.667-3.45-4.25-6.124-3.536-2.668.715-4.25 3.457-3.536 6.124l1.066 3.98-3.059-1.766c-2.396-1.382-5.451-.561-6.83 1.83-1.381 2.392-.562 5.45 1.83 6.83l3.058 1.766-3.978 1.066c-2.668.715-4.25 3.457-3.536 6.124.599 2.234 2.619 3.708 4.827 3.708.428 0 .863-.056 1.297-.172l13.638-3.654 8.38 4.838v11.028l-8.381 4.838-13.638-3.654c-2.667-.715-5.409.868-6.124 3.536-.714 2.667.868 5.409 3.536 6.124l3.977 1.066-3.057 1.765c-2.392 1.38-3.211 4.438-1.83 6.83.926 1.604 2.606 2.501 4.335 2.501.848 0 1.708-.216 2.495-.671l3.059-1.766-1.067 3.981c-.714 2.667.869 5.409 3.536 6.124.434.116.868.172 1.297.172 2.208 0 4.229-1.474 4.827-3.708l3.655-13.639 8.379-4.837 9.55 5.514-.001 9.678-9.982 9.982c-1.953 1.953-1.953 5.119 0 7.071 1.951 1.952 5.119 1.952 7.07 0l2.91-2.91v3.525c0 2.761 2.238 5 4.999 5h.001c2.761 0 5-2.238 5-5v-3.533l2.917 2.917c.976.976 2.256 1.464 3.535 1.464s2.56-.488 3.535-1.464c1.953-1.953 1.953-5.119 0-7.071l-9.986-9.986.001-9.674 9.551-5.514 8.38 4.837 3.655 13.639c.599 2.234 2.619 3.708 4.827 3.708.428 0 .863-.056 1.297-.172 2.667-.715 4.25-3.457 3.536-6.124l-1.067-3.982 3.061 1.767c.788.454 1.647.67 2.495.67 1.729 0 3.409-.897 4.335-2.501 1.381-2.392.562-5.449-1.83-6.83l-3.057-1.765 3.975-1.065c2.668-.715 4.25-3.457 3.536-6.124-.714-2.664-3.451-4.249-6.123-3.533zm-32.019-1.184-9.551 5.514-9.55-5.514v-11.028l9.55-5.514 9.551 5.514z" fill="#d8d8ff" data-original="#d8d8ff"></path></g></g><g><g><g><g><path d="m382.63 439.169h-61c-8.284 0-15-6.716-15-15v-61c0-8.284 6.716-15 15-15h61c8.284 0 15 6.716 15 15v61c0 8.284-6.715 15-15 15z" fill="#9393ff" data-original="#9393ff"></path></g></g></g><g><g><path d="m362.332 416.464h-6.312c-7.197 0-13.053-5.856-13.053-13.054v-19.483c0-7.198 5.855-13.053 13.053-13.053h6.312c7.197 0 13.053 5.855 13.053 13.053 0 2.761-2.238 5-5 5s-5-2.239-5-5c0-1.684-1.369-3.053-3.053-3.053h-6.312c-1.684 0-3.053 1.37-3.053 3.053v19.483c0 1.684 1.369 3.054 3.053 3.054h6.312c1.684 0 3.053-1.37 3.053-3.054 0-2.761 2.238-5 5-5s5 2.239 5 5c0 7.198-5.856 13.054-13.053 13.054z" fill="#ffffff" data-original="#ffffff"></path></g><g><path d="m333.875 381.632c-2.762 0-5-2.239-5-5v-.758c0-2.761 2.238-5 5-5s5 2.239 5 5v.758c0 2.762-2.238 5-5 5z" fill="#ffffff" data-original="#ffffff"></path></g></g></g></g><g><path d="m63.867 108.825c-2.762 0-5-2.239-5-5 0-3.033-2.468-5.5-5.5-5.5-2.762 0-5-2.239-5-5s2.238-5 5-5c3.032 0 5.5-2.467 5.5-5.5 0-2.761 2.238-5 5-5s5 2.239 5 5c0 3.033 2.468 5.5 5.5 5.5 2.762 0 5 2.239 5 5s-2.238 5-5 5c-3.032 0-5.5 2.467-5.5 5.5 0 2.761-2.238 5-5 5z" fill="#ff6c6c" data-original="#ff6c6c" class=""></path></g><g><path d="m439.896 402.77c-2.762 0-5-2.239-5-5 0-3.033-2.468-5.5-5.5-5.5-2.762 0-5-2.239-5-5s2.238-5 5-5c3.032 0 5.5-2.467 5.5-5.5 0-2.761 2.238-5 5-5s5 2.239 5 5c0 3.033 2.468 5.5 5.5 5.5 2.762 0 5 2.239 5 5s-2.238 5-5 5c-3.032 0-5.5 2.467-5.5 5.5 0 2.761-2.239 5-5 5z" fill="#ff9c33" data-original="#ff9c33"></path></g><g><g><path d="m121.062 93.122c-3.483 0-6.759-1.356-9.222-3.82h-.001c-5.084-5.084-5.084-13.358 0-18.442l6.226-6.225c5.086-5.085 13.36-5.083 18.442 0 2.464 2.463 3.82 5.738 3.82 9.222 0 3.483-1.356 6.758-3.82 9.222l-6.225 6.224c-2.462 2.462-5.737 3.819-9.22 3.819zm-2.151-10.891c1.148 1.148 3.151 1.148 4.3 0l6.226-6.225c.574-.575.891-1.338.891-2.15s-.316-1.576-.891-2.15c-1.184-1.184-3.112-1.186-4.302 0l-6.225 6.224c-1.184 1.185-1.184 3.115.001 4.301z" fill="#6c6cff" data-original="#6c6cff"></path></g></g><g><g><path d="m447.283 337.224c-3.483 0-6.758-1.356-9.221-3.819-.001 0-.001 0-.001 0-2.463-2.463-3.819-5.738-3.819-9.221 0-3.484 1.356-6.759 3.82-9.222l6.223-6.224c5.086-5.085 13.36-5.084 18.444 0 5.084 5.085 5.084 13.359.001 18.443l-6.226 6.225c-2.462 2.462-5.737 3.818-9.221 3.818zm6.225-22.306c-.779 0-1.558.297-2.151.89l-6.223 6.224c-.575.575-.892 1.338-.892 2.151 0 .812.316 1.576.891 2.15h.001c1.148 1.148 3.15 1.148 4.301 0l6.225-6.225c1.185-1.186 1.185-3.115-.001-4.301-.594-.592-1.372-.889-2.151-.889z" fill="#ff6c6c" data-original="#ff6c6c" class=""></path></g></g><g><g><path d="m60.755 409.822c-3.483 0-6.759-1.356-9.222-3.819-5.085-5.085-5.085-13.359 0-18.444l6.225-6.224c5.084-5.083 13.358-5.085 18.442 0 2.464 2.463 3.82 5.738 3.82 9.222s-1.356 6.759-3.82 9.222l-6.225 6.225c-2.461 2.462-5.737 3.818-9.22 3.818zm-2.151-10.89c1.15 1.148 3.152 1.149 4.301 0l6.226-6.225c.574-.575.891-1.338.891-2.15s-.316-1.576-.891-2.15c-1.186-1.186-3.116-1.185-4.302 0l-6.225 6.224c-1.186 1.185-1.186 3.115 0 4.301z" fill="#ff9c33" data-original="#ff9c33"></path></g></g></g></g><g fill="#0000ca"><path d="m406.96 256.224h-30.052c-5.252 0-9.634 4.118-9.974 9.375-1.872 28.904-13.232 55.997-32.291 77.571h-13.013c-11.028 0-20 8.972-20 20v6.976c-5.797 3.335-11.824 6.212-18.039 8.604v-67.263h28.94c2.762 0 5-2.239 5-5s-2.238-5-5-5h-28.94v-12.333h43.606c2.762 0 5-2.239 5-5s-2.238-5-5-5h-43.606v-12.334h60.054c2.762 0 5-2.239 5-5s-2.238-5-5-5h-60.054v-171.844c0-8.271-6.729-15-15-15h-63.362c-7.557 0-13.809 5.622-14.835 12.9-30.844 8.212-59.097 24.558-82.056 47.926-33.312 33.906-51.684 78.688-51.732 126.099-.049 47.994 18.739 93.261 52.904 127.46 22.835 22.858 50.632 38.82 80.88 46.913 1.015 7.291 7.273 12.927 14.84 12.927h63.362c7.555 0 13.805-5.619 14.834-12.893 6.198-1.654 12.293-3.64 18.265-5.944.624 10.47 9.315 18.804 19.939 18.804h61c11.028 0 20-8.972 20-20v-61c0-7.022-3.646-13.199-9.135-16.768 13.832-24.149 21.955-51.3 23.461-79.64.145-2.728-.851-5.43-2.732-7.414-1.883-1.984-4.531-3.122-7.264-3.122zm-105.33 125.324v33.045c-5.888 2.43-11.907 4.532-18.039 6.283v-31.478c6.185-2.185 12.21-4.808 18.039-7.85zm-235.026-124.636c.046-44.777 17.4-87.074 48.866-119.101 21.004-21.379 46.697-36.531 74.758-44.512v31.45c-50.54 17.806-88.01 63.73-93.049 119.65-.248 2.75 1.78 5.181 4.531 5.429 2.744.238 5.18-1.781 5.428-4.531 4.568-50.697 37.842-92.549 83.09-109.895v121.418h-60.054c-2.762 0-5 2.239-5 5s2.238 5 5 5h60.054v12.333h-43.606c-2.762 0-5 2.239-5 5s2.238 5 5 5h43.606v12.333h-28.939c-2.762 0-5 2.239-5 5s2.238 5 5 5h28.939v67.218c-44.13-17.041-77.131-57.52-82.775-106.742-.315-2.742-2.781-4.72-5.537-4.397-2.744.314-4.713 2.793-4.398 5.537 6.23 54.322 43.406 98.746 92.711 116.253v31.504c-27.502-7.863-52.766-22.663-73.645-43.564-32.276-32.309-50.025-75.062-49.98-120.383zm206.987 172.29c0 2.757-2.243 5-5 5h-63.362c-2.757 0-5-2.243-5-5v-344.226c0-2.757 2.243-5 5-5h63.362c2.757 0 5 2.243 5 5zm119.039-5.033c0 5.514-4.486 10-10 10h-61c-5.514 0-10-4.486-10-10v-61c0-5.514 4.486-10 10-10h61c5.514 0 10 4.486 10 10zm-8.838-80.941c-.387-.022-.77-.059-1.162-.059h-34.997c17.208-22.046 27.45-48.684 29.275-76.945l30.061.007c-1.459 27.459-9.481 53.748-23.177 76.997z" fill="#0000ca" data-original="#0000ca" class=""></path><path d="m449.396 106.542-64.322-37.136c-3.7-2.137-8.299-2.138-12.001 0l-22.757 13.139c-2.392 1.381-3.211 4.438-1.83 6.83 1.38 2.39 4.437 3.211 6.83 1.83l22.757-13.139c.617-.356 1.383-.356 2 0l64.323 37.137c.617.356 1 1.02 1 1.732v74.274c0 .712-.383 1.376-1 1.732l-64.324 37.137c-.615.355-1.382.356-1.999 0l-64.322-37.137c-.617-.356-1-1.02-1-1.732v-74.274c0-.712.383-1.376 1-1.732l17.584-10.152c2.392-1.381 3.211-4.438 1.83-6.83-1.381-2.391-4.438-3.213-6.83-1.83l-17.584 10.152c-3.701 2.137-6 6.119-6 10.393v74.274c0 4.273 2.299 8.255 6 10.392l64.322 37.137c1.851 1.069 3.926 1.603 6.001 1.603 2.074 0 4.149-.535 5.999-1.603l64.323-37.137c3.701-2.137 6-6.119 6-10.392v-74.274c0-4.275-2.299-8.257-6-10.394z" fill="#0000ca" data-original="#0000ca" class=""></path></g></g></g></svg>